<svg version="1.1" id="Layer_1" xmlns="http://www.w3.org/2000/svg" xmlns:xlink="http://www.w3.org/1999/xlink" x="0px" y="0px"
	 width="100%" viewBox="0 0 1024 1024" enable-background="new 0 0 1024 1024" xml:space="preserve">
<path fill="#071724" opacity="1.000000" stroke="none" 
	d="
M671.000000,1025.000000 
	C447.333344,1025.000000 224.166672,1025.000000 1.000000,1025.000000 
	C1.000000,683.666687 1.000000,342.333344 1.000000,1.000000 
	C342.333344,1.000000 683.666687,1.000000 1025.000000,1.000000 
	C1025.000000,342.333344 1025.000000,683.666687 1025.000000,1025.000000 
	C907.166687,1025.000000 789.333313,1025.000000 671.000000,1025.000000 
M355.974579,748.017517 
	C355.974579,748.017517 356.076141,748.028381 355.982117,747.429993 
	C355.668915,747.181030 355.355682,746.932129 354.726562,746.140686 
	C353.141357,745.116394 351.556152,744.092102 349.412659,742.661133 
	C338.942841,738.707764 328.473022,734.754456 318.034637,730.944458 
	C318.034637,730.944458 318.177826,730.912659 317.765167,730.401489 
	C316.811981,729.863464 315.858765,729.325378 314.564331,728.222229 
	C308.726135,721.638245 310.630829,716.229431 320.704712,712.579956 
	C321.792297,712.360352 322.879883,712.140808 324.775177,712.020081 
	C325.858459,711.987000 326.941772,711.953918 328.785187,712.070068 
	C332.854401,713.093994 336.923584,714.117920 340.975891,715.037476 
	C340.975891,715.037476 340.871552,715.054688 341.377655,715.543518 
	C342.247620,715.742004 343.117554,715.940430 343.859161,716.081543 
	C343.859161,716.081543 343.802063,716.210022 344.053253,716.843018 
	C345.675018,717.616638 347.296783,718.390259 348.807220,719.177856 
	C348.807220,719.177856 348.820953,719.289185 349.047882,719.796082 
	C349.477173,719.562744 349.906433,719.329407 350.862213,718.716675 
	C353.516022,715.325317 356.108948,711.883850 358.844818,708.560059 
	C360.694641,706.312744 360.844177,704.587830 358.072418,702.968140 
	C350.306702,698.430115 342.490143,694.264587 333.010040,694.956665 
	C329.113434,695.241089 325.130066,695.302856 321.263428,694.831665 
	C313.001373,693.824768 306.155975,696.664978 299.420685,702.012329 
	C299.252686,702.348694 299.084686,702.685059 299.018494,703.011536 
	C299.018494,703.011536 299.008850,702.909729 298.403290,702.982361 
	C298.237579,703.323547 298.071869,703.664734 298.005676,704.005432 
	C298.005676,704.005432 298.005432,703.906006 297.396362,703.958252 
	C297.234070,704.308594 297.071808,704.658875 297.001862,704.998108 
	C297.001862,704.998108 296.990967,704.905762 296.370117,705.015686 
	C295.877594,705.679382 295.385071,706.343140 294.989624,706.983826 
	C294.989624,706.983826 294.966492,706.886780 294.441650,707.337952 
	C290.002136,713.931030 288.905548,721.181824 290.174347,729.645020 
	C291.682617,735.989258 295.274231,741.037292 300.924194,744.014221 
	C307.359009,747.404541 314.188904,750.058228 320.900909,752.905151 
	C326.244171,755.171448 331.781372,757.008789 337.016815,759.491272 
	C340.502991,761.144409 342.568756,764.181335 342.282959,768.376282 
	C341.997711,772.562317 339.522430,775.377502 335.893402,776.504089 
	C332.166229,777.661072 328.090302,778.337952 324.201721,778.205505 
	C314.327606,777.868958 306.113739,773.169434 298.336609,766.799683 
	C294.470459,771.966797 290.736145,776.957703 286.947693,782.020996 
	C293.622162,788.478394 301.024597,792.356201 309.219666,795.007751 
	C317.216278,797.595154 325.193359,796.593994 333.365204,796.167908 
	C346.511597,795.482300 357.715515,788.162964 362.100006,775.199585 
	C363.416473,767.123657 365.224304,758.984192 359.039825,751.966675 
	C359.039825,751.966675 359.132812,752.007629 359.318054,751.352234 
	C358.886261,750.861511 358.454498,750.370728 357.976837,749.976257 
	C357.976837,749.976257 358.072998,750.022278 357.961578,749.446472 
	C357.635956,749.269836 357.310333,749.093201 356.985565,749.015015 
	C356.985565,749.015015 357.084106,749.014465 356.988586,748.429993 
	C356.654144,748.258606 356.319672,748.087280 355.974579,748.017517 
M455.336395,707.368408 
	C455.336395,707.368408 455.006592,706.997314 454.778900,706.388123 
	C453.174347,704.673157 451.569824,702.958191 449.481842,700.885437 
	C448.955444,700.599487 448.429047,700.313599 447.541260,700.035767 
	C447.269104,699.998840 447.097534,699.847778 446.486908,699.154297 
	C445.914337,698.789368 445.341736,698.424438 444.943756,697.955811 
	C444.943756,697.955811 445.047699,698.130249 444.431976,697.842529 
	C443.547424,697.600586 442.662842,697.358643 441.834503,697.082886 
	C441.834503,697.082886 441.820587,697.147095 441.418274,696.554565 
	C438.958374,695.720825 436.522797,694.253479 434.034576,694.157898 
	C419.608917,693.604004 405.171661,693.306763 390.735809,693.129272 
	C389.177979,693.110107 387.603821,694.419128 386.065033,695.568542 
	C386.065033,695.568542 386.185516,696.009705 386.087189,696.905396 
	C386.021088,699.607666 385.954987,702.309875 385.373260,705.313965 
	C385.545380,707.200378 385.717499,709.086853 386.035736,711.776611 
	C385.985352,712.860596 385.934937,713.944641 385.545319,715.743896 
	C385.659546,719.153442 385.773804,722.563049 386.034882,726.857910 
	C385.986267,729.247742 385.937653,731.637634 385.537201,734.767822 
	C385.355225,747.554443 385.132141,760.340820 385.035126,773.128052 
	C385.020355,775.074036 385.590027,777.024475 386.033936,779.729797 
	C385.985199,780.495667 385.936493,781.261475 385.547577,782.730591 
	C385.659851,785.811096 385.772125,788.891602 386.067535,792.508423 
	C386.123077,792.688965 386.178619,792.869507 386.103180,793.662903 
	C386.077423,794.079834 386.051697,794.496765 386.460724,795.544067 
	C393.050751,797.649963 399.607330,798.300720 406.675720,794.616699 
	C407.109375,788.571472 407.840546,782.530090 407.917419,776.480347 
	C408.101410,761.996277 407.981781,762.203979 422.539642,761.882324 
	C427.367157,761.775635 432.164185,760.288757 437.606293,759.162720 
	C448.431976,756.181885 456.851929,750.558838 460.008087,738.274353 
	C461.789612,728.046570 462.130219,718.009949 456.012543,708.932434 
	C456.012543,708.932434 456.126312,709.019348 456.001831,708.418152 
	C455.678650,708.243286 455.355469,708.068420 455.239990,708.066284 
	C455.239990,708.066284 455.413116,707.858887 455.336395,707.368408 
M734.125488,708.329895 
	C733.757629,708.185730 733.389832,708.041565 733.211121,708.012634 
	C733.211121,708.012634 733.326660,707.823608 733.076904,707.238525 
	C732.406128,706.752502 731.735352,706.266541 730.848755,705.370911 
	C730.623352,705.135620 730.347961,705.009888 729.603882,704.490417 
	C728.081482,703.632751 726.559082,702.775085 725.037659,701.980896 
	C725.037659,701.980896 725.095703,701.955261 724.581055,701.483521 
	C716.347046,696.775024 707.230896,695.745300 697.141235,694.991089 
	C695.076172,695.037109 693.011047,695.083130 690.018250,695.055237 
	C681.675415,695.038147 673.332520,695.020996 664.385925,695.467407 
	C663.927917,697.158386 663.075073,698.848206 663.070496,700.540466 
	C662.989868,730.255554 662.980530,759.971130 663.093933,789.686035 
	C663.100708,791.464600 664.268921,793.238647 665.839722,795.145020 
	C676.211548,795.069336 686.583435,794.993591 697.840820,795.024292 
	C702.591431,794.344604 707.434021,794.045959 712.077881,792.924377 
	C746.571045,784.593933 761.819824,742.528442 740.066956,714.566223 
	C739.422729,713.948608 738.778442,713.331055 737.981689,712.829590 
	C737.981689,712.829590 738.097595,712.982178 738.083313,712.351746 
	C737.733337,712.196716 737.383362,712.041626 737.032349,711.967896 
	C737.032349,711.967896 737.113708,711.968750 737.130615,711.319519 
	C736.767273,711.171753 736.403931,711.023987 736.040100,710.960266 
	C736.040100,710.960266 736.124146,710.960388 736.163269,710.302551 
	C735.789062,710.160034 735.414795,710.017517 735.040833,709.958801 
	C735.040833,709.958801 735.124573,709.958191 735.157837,709.307068 
	C734.782715,709.165955 734.407654,709.024902 734.033020,708.966003 
	C734.033020,708.966003 734.115173,708.965271 734.125488,708.329895 
M645.628845,469.079987 
	C645.784302,468.718597 645.939819,468.357178 645.996643,468.037781 
	C645.996643,468.037781 646.038940,468.136292 646.657837,468.017975 
	C647.150940,467.356140 647.644043,466.694305 648.046509,466.042755 
	C648.046509,466.042755 648.057190,466.133331 648.585938,465.728729 
	C648.392273,463.814514 648.198669,461.900269 647.997559,460.002441 
	C647.997559,460.002441 648.014709,459.994873 647.520630,459.402924 
	C635.368652,458.977020 623.216614,458.551117 610.363831,458.000000 
	C609.892578,458.039307 609.421265,458.078613 608.026245,457.996552 
	C599.629578,457.963593 591.232849,457.930634 582.400085,457.344177 
	C586.329651,451.857574 590.265198,446.375305 594.187744,440.883728 
	C616.821472,409.196198 639.429932,377.490540 662.104919,345.832520 
	C666.048767,340.326294 670.268982,335.018005 674.511536,329.420319 
	C676.302002,330.700775 677.669189,331.612549 678.965027,332.616333 
	C685.675720,337.814453 692.325256,343.092468 699.080994,348.231140 
	C704.234558,352.151215 707.255432,350.850189 708.173218,344.599304 
	C709.332031,336.707397 710.610718,328.833069 712.005554,320.177582 
	C713.656982,310.458527 715.308411,300.739502 717.025574,290.582092 
	C717.025574,290.582092 717.041382,290.139069 717.601746,289.737244 
	C717.954834,288.173523 718.307922,286.609772 718.908813,284.245361 
	C721.778381,269.076965 724.595215,253.898300 727.539673,238.744446 
	C729.017639,231.138199 724.969543,227.105850 717.791321,229.963425 
	C696.680969,238.367233 675.723450,247.154953 653.981995,255.914398 
	C645.274597,259.585052 636.567139,263.255737 627.973572,266.940948 
	C627.973572,266.940948 627.987793,266.827087 627.291077,266.946503 
	C625.819031,267.610992 624.346924,268.275482 622.967957,268.957031 
	C622.967957,268.957031 622.984741,268.863922 622.242188,268.985504 
	C618.434143,270.920685 614.626160,272.855865 610.718079,274.541138 
	C610.718079,274.541138 610.467529,274.639618 609.922791,274.972321 
	C610.132324,276.428680 610.341858,277.885010 610.552979,279.405365 
	C610.552979,279.405365 610.616943,279.406250 610.924988,279.957520 
	C612.237061,281.000702 613.549133,282.043854 615.237549,283.644196 
	C624.173401,290.503021 633.109253,297.361816 642.176331,304.321320 
	C617.248718,339.646576 592.578979,374.606476 567.909241,409.566406 
	C567.602905,409.445007 567.296509,409.323608 566.990173,409.202209 
	C566.990173,402.112152 566.990173,395.022125 567.887207,387.909271 
	C571.242371,387.612885 574.597473,387.316498 578.337158,386.284912 
	C578.552917,385.154633 578.955017,384.024628 578.956848,382.894012 
	C578.993164,360.668457 579.005127,338.442780 578.928955,316.217407 
	C578.924194,314.827850 578.154419,313.440948 577.325439,311.580536 
	C577.214417,311.402863 577.103333,311.225159 576.293030,310.672699 
	C575.664673,310.484741 575.015015,310.082367 574.411194,310.142242 
	C568.969604,310.681702 567.666199,307.868652 567.927002,302.985535 
	C568.243408,297.062927 568.152832,291.103363 567.893860,285.174805 
	C567.817932,283.436035 566.570129,281.748474 564.970703,280.123230 
	C562.050354,280.434723 559.129944,280.746246 555.784180,281.619568 
	C555.521606,287.514099 555.115173,293.406586 555.029602,299.303680 
	C554.895386,308.552185 554.986023,308.548370 546.343567,310.388184 
	C545.871887,310.488586 545.443481,310.792114 544.672180,311.328339 
	C544.456299,311.545746 544.241333,311.764130 543.643127,312.718048 
	C543.431946,313.852783 543.038330,314.987244 543.036682,316.122284 
	C543.004456,338.241974 542.988831,360.361847 543.085083,382.481171 
	C543.091736,384.010956 544.001038,385.536804 544.722168,386.975067 
	C544.722168,386.975067 544.964905,387.027283 544.909912,387.494904 
	C544.909912,387.494904 545.011658,387.954651 545.718567,388.336975 
	C555.006958,390.301514 555.006897,390.301514 555.004761,400.121185 
	C555.004517,401.284912 554.971497,402.449768 555.011230,403.612152 
	C555.265930,411.054810 555.536743,418.496887 555.612000,426.573151 
	C546.058716,439.835022 536.505432,453.096863 527.331848,465.831604 
	C524.110657,462.904175 520.951538,460.219452 518.039185,457.289429 
	C516.962646,456.206360 515.873779,454.571014 515.814087,453.144714 
	C515.613770,448.358795 515.875122,443.553558 516.873718,438.796631 
	C519.921082,438.772919 522.968506,438.749207 526.656128,438.860229 
	C527.375793,438.563507 528.095459,438.266785 528.926819,437.042480 
	C528.899902,428.036499 528.872986,419.030548 528.971375,409.149933 
	C528.927795,407.091766 528.884216,405.033630 528.927246,402.061523 
	C528.897949,398.382812 528.868652,394.704132 528.971680,390.268860 
	C528.929688,389.504578 528.887756,388.740326 528.928894,387.084076 
	C528.895508,384.398285 528.862061,381.712463 528.954407,378.269623 
	C528.918274,377.505493 528.882080,376.741333 528.927917,375.092773 
	C528.990356,372.724609 529.052795,370.356476 529.445923,367.322174 
	C530.696594,363.553864 529.080627,361.814484 525.378052,362.042755 
	C520.724304,362.329620 519.765320,359.819305 519.883057,355.847351 
	C520.050781,350.188141 520.100281,344.510132 519.796814,338.861816 
	C519.708618,337.220917 518.241760,335.654083 516.610229,333.866882 
	C513.430847,333.730927 510.251465,333.595001 506.788208,334.318176 
	C506.520477,341.855042 506.137054,349.390320 506.036346,356.929413 
	C505.989685,360.422363 504.741852,361.950775 501.115265,362.092407 
	C499.063873,362.172546 497.057251,363.398987 495.016815,364.745117 
	C495.065796,365.165985 495.114777,365.586884 495.000244,365.994019 
	C495.000244,365.994019 494.836914,365.978943 494.581177,366.447174 
	C494.665985,367.282532 494.750763,368.117889 494.960846,369.889099 
	C495.029938,379.267853 495.099060,388.646576 495.085968,398.673248 
	C495.112579,399.106934 495.139191,399.540649 495.036713,400.899902 
	C494.970245,405.281525 494.903778,409.663177 494.579193,414.500031 
	C494.664856,415.318085 494.750519,416.136108 494.959259,417.856140 
	C495.015533,420.584045 495.071808,423.311981 495.039612,426.834381 
	C494.970398,427.895599 494.901184,428.956787 494.328430,430.175751 
	C493.882904,430.451385 493.437408,430.727020 492.398743,430.692322 
	C479.144440,417.352386 465.967499,403.934296 452.601379,390.707336 
	C446.421234,384.591553 443.226410,384.841553 438.032593,391.565399 
	C426.743256,406.180359 415.467163,420.808594 404.410339,435.599365 
	C390.471069,454.245972 376.755920,473.060120 362.484070,492.148438 
	C361.518799,493.688629 360.553528,495.228851 359.709045,496.957550 
	C359.709045,496.957550 359.897614,496.836914 359.204590,496.785187 
	C357.412201,499.167999 355.619781,501.550812 353.930420,503.928955 
	C353.930420,503.928955 353.925232,503.825897 353.455505,504.121613 
	C352.560944,505.391724 351.666382,506.661835 350.365631,508.143036 
	C350.128021,508.362244 350.002228,508.633362 349.504181,509.341888 
	C348.943726,510.206940 348.383270,511.071991 347.930511,511.931854 
	C347.930511,511.931854 347.924774,511.824158 347.390411,512.190063 
	C346.540375,513.439148 345.690338,514.688293 344.937164,515.933350 
	C344.937164,515.933350 344.932678,515.836548 344.397247,516.225403 
	C340.833557,521.134155 337.269867,526.042969 333.214081,531.340637 
	C333.135681,531.534424 333.057251,531.728271 332.475586,532.335815 
	C326.180420,540.760315 326.085022,542.125977 332.315063,547.175842 
	C339.776825,547.448059 347.238129,547.902649 354.700562,547.922180 
	C358.976959,547.933289 363.255157,547.237671 367.676483,546.226135 
	C369.204834,545.176941 370.733215,544.127808 372.657043,542.900391 
	C372.893860,542.703613 373.021759,542.451599 373.558563,541.762756 
	C374.416077,540.524658 375.273560,539.286621 376.057739,538.057190 
	C376.057739,538.057190 376.066925,538.130493 376.609528,537.755493 
	C379.447510,533.853333 382.285492,529.951111 385.741974,525.622742 
	C406.186127,498.407684 426.630280,471.192627 446.646332,444.547455 
	C451.583496,449.155304 456.301788,453.558899 461.253296,458.386230 
	C461.451416,458.650604 461.701263,458.850220 462.257233,459.596680 
	C464.413239,461.746674 466.569244,463.896667 469.035431,466.560333 
	C469.344788,466.810425 469.654144,467.060516 470.208557,467.855347 
	C471.380402,468.920105 472.552246,469.984833 474.039581,471.537750 
	C474.372955,471.711761 474.706360,471.885742 475.028259,471.962769 
	C475.028259,471.962769 474.931274,471.973938 475.072174,472.527679 
	C475.389221,472.709900 475.706268,472.892090 476.020844,472.977570 
	C476.020844,472.977570 475.924103,472.979858 476.049194,473.543091 
	C476.373108,473.720490 476.697021,473.897888 477.034088,473.976166 
	C477.034088,473.976166 476.934998,473.962769 477.063751,474.549805 
	C477.362244,474.812286 477.660706,475.074799 478.242493,475.912537 
	C486.806458,484.279541 495.370422,492.646545 504.310364,501.509033 
	C504.883728,501.698639 505.457062,501.888245 505.992432,502.010681 
	C505.992432,502.010681 505.925354,502.048798 506.458984,502.748138 
	C507.247711,502.978882 508.038177,503.416504 508.824829,503.409821 
	C524.201477,503.278412 539.577698,503.095245 555.217285,503.431305 
	C554.468384,504.892303 553.833374,506.426117 552.953491,507.803436 
	C537.716248,531.655518 522.397095,555.455383 507.205505,579.336426 
	C496.304932,596.472046 485.534393,613.690796 474.780396,630.919006 
	C472.485565,634.595337 471.628113,638.628723 475.567657,641.689697 
	C479.274231,644.569580 483.273682,643.398621 486.591919,640.708435 
	C489.423645,638.412720 491.937469,635.697021 494.433502,633.019409 
	C530.105225,594.752136 565.821167,556.525574 601.367188,518.141724 
	C616.073547,502.261200 630.401855,486.030487 645.228149,469.505188 
	C645.181458,469.324860 645.134827,469.144501 644.976501,468.992920 
	C644.976501,468.992920 645.004944,469.104614 645.628845,469.079987 
M595.929382,753.047546 
	C607.044250,753.054626 618.159363,753.099792 629.273682,753.023865 
	C630.777222,753.013550 632.276672,752.395508 633.893738,751.125244 
	C633.592285,746.090576 633.290833,741.055969 632.059326,735.909424 
	C619.708740,735.912048 607.358215,735.914673 594.830200,735.004578 
	C594.883179,727.405945 594.936096,719.807373 595.927002,712.241577 
	C610.199402,712.241577 624.471741,712.241577 638.782471,712.241577 
	C638.782471,706.326172 638.782471,700.893555 638.782471,694.959290 
	C617.279358,694.959290 596.009827,694.959290 574.183594,695.634766 
	C573.791382,697.373413 573.061462,699.111328 573.057373,700.850891 
	C572.987244,730.443542 572.976196,760.036499 573.082214,789.628967 
	C573.088684,791.440613 574.178040,793.248291 574.943115,795.057617 
	C574.943115,795.057617 574.942993,795.237183 575.459595,795.782715 
	C577.015442,796.185547 578.569641,796.931580 580.127319,796.938843 
	C598.079102,797.022644 616.031555,797.030212 633.983215,796.939087 
	C635.724426,796.930237 637.461548,796.127136 639.428955,795.318054 
	C639.544189,794.780457 639.659363,794.242859 639.824890,792.895752 
	C639.559875,791.603333 639.294922,790.310974 639.506287,788.752075 
	C639.347290,788.161194 639.188293,787.570374 639.032043,786.225769 
	C639.060547,783.840332 639.088989,781.454895 639.659363,778.504761 
	C639.273743,778.238892 638.887634,777.739868 638.502625,777.740723 
	C623.982422,777.773376 609.462341,777.852051 594.960022,778.038635 
	C594.960022,778.038635 595.074219,778.021057 594.791626,777.111450 
	C594.890503,769.069824 594.989380,761.028198 594.999939,752.975525 
	C594.999939,752.975525 594.988708,753.063843 595.929382,753.047546 
M542.533997,735.328613 
	C540.678040,734.887573 538.828125,734.098267 536.965088,734.065857 
	C528.878540,733.925110 520.786560,733.910400 512.699707,734.042603 
	C508.266632,734.115051 503.749573,734.747559 504.621185,727.901794 
	C504.691895,727.346558 503.693237,726.655212 503.070465,725.267517 
	C503.111633,724.501770 503.152771,723.736023 503.753876,722.561035 
	C504.131897,721.671143 504.973358,720.686707 504.814178,719.906494 
	C503.626556,714.085754 507.032135,713.854004 511.367432,713.940552 
	C520.670654,714.126282 529.981750,714.094055 539.286255,713.943359 
	C542.390869,713.893066 545.485291,713.210449 548.341919,712.059570 
	C548.330688,708.283875 548.454163,704.500916 548.251648,700.735535 
	C548.149841,698.842041 547.456116,696.980347 546.112183,694.999878 
	C542.720703,695.048279 539.329285,695.096680 535.167419,695.071289 
	C534.136719,695.095520 533.105957,695.119690 531.298157,694.995483 
	C530.512268,695.045227 529.726379,695.094910 528.319885,695.079224 
	C527.905273,695.104126 527.490662,695.129089 526.142151,695.008301 
	C521.074524,695.052307 516.006836,695.096313 510.012329,695.066650 
	C501.086792,695.066650 492.161255,695.066650 483.003357,695.066650 
	C483.003357,728.784546 483.003357,761.906067 483.466980,795.627625 
	C485.156982,796.080872 486.845001,796.919373 488.537323,796.928223 
	C506.914215,797.024292 525.292114,797.040405 543.668579,796.912598 
	C545.461609,796.900146 547.247009,795.782410 549.157715,794.225464 
	C549.157715,788.790161 549.157715,783.354919 549.157715,777.528564 
	C533.297546,777.528564 518.151978,777.528564 503.000824,776.650391 
	C503.006470,768.815125 503.012085,760.979797 503.947754,753.041870 
	C516.915649,753.041870 529.883545,753.041870 543.018005,753.041870 
	C543.018005,746.809692 543.018005,741.360779 542.533997,735.328613 
M455.534424,474.042633 
	C455.369263,474.077209 455.204132,474.111816 454.135834,474.031219 
	C451.407166,474.086151 448.678497,474.141083 445.300964,474.131836 
	C444.920044,474.740356 444.539154,475.348846 444.035126,476.892944 
	C444.066498,495.607117 444.097870,514.321289 444.208679,533.743347 
	C448.274689,533.840454 452.340668,533.937561 456.912231,533.495483 
	C457.269470,532.085571 457.931427,530.676941 457.937531,529.265503 
	C458.010284,512.448120 458.038269,495.629852 457.901215,478.813263 
	C457.888123,477.201080 456.687408,475.598572 455.534424,474.042633 
z"/>
<path fill="#2FB56E" opacity="1.000000" stroke="none" 
	d="
M332.978821,531.922058 
	C333.057251,531.728271 333.135681,531.534424 333.757782,531.080933 
	C337.845215,525.826294 341.388947,520.831421 344.932678,515.836548 
	C344.932678,515.836548 344.937164,515.933350 345.215698,515.832642 
	C346.304413,514.429321 347.114594,513.126709 347.924744,511.824158 
	C347.924774,511.824158 347.930511,511.931854 348.187805,511.816345 
	C348.959473,510.786011 349.473907,509.871185 349.988281,508.956360 
	C350.002228,508.633362 350.128021,508.362244 350.899231,507.940125 
	C352.263611,506.433411 353.094452,505.129669 353.925232,503.825928 
	C353.925232,503.825897 353.930420,503.928955 354.207550,503.831604 
	C356.289001,501.435120 358.093323,499.136017 359.897644,496.836914 
	C359.897614,496.836914 359.709045,496.957550 359.972260,496.726776 
	C361.138336,494.931305 362.041168,493.366608 362.944031,491.801941 
	C376.755920,473.060120 390.471069,454.245972 404.410339,435.599365 
	C415.467163,420.808594 426.743256,406.180359 438.032593,391.565399 
	C443.226410,384.841553 446.421234,384.591553 452.601379,390.707336 
	C465.967499,403.934296 479.144440,417.352386 492.804291,431.094482 
	C493.854279,431.659515 494.498718,431.822357 495.307678,431.678497 
	C495.357483,429.594482 495.242767,427.817200 495.128082,426.039886 
	C495.071808,423.311981 495.015533,420.584045 494.940918,417.042725 
	C494.894135,415.501129 494.865692,414.772980 494.837280,414.044800 
	C494.903778,409.663177 494.970245,405.281525 495.294678,400.349854 
	C495.424469,399.208282 495.296326,398.616821 495.168182,398.025330 
	C495.099060,388.646576 495.029938,379.267853 494.940857,369.050507 
	C494.892883,367.467590 494.864899,366.723267 494.836914,365.978943 
	C494.836914,365.978943 495.000244,365.994019 495.439148,365.853210 
	C498.908295,365.181335 501.938538,364.650299 505.248535,364.002228 
	C506.040955,363.589874 506.553619,363.294556 507.377594,362.812561 
	C508.431305,360.369904 509.682831,358.143402 509.815430,355.852142 
	C510.142273,350.204651 509.802826,344.519409 510.098572,338.868591 
	C510.160645,337.682587 511.799408,336.579102 512.711609,335.437592 
	C513.479065,336.556335 514.573364,337.581604 514.927124,338.818665 
	C515.325073,340.210052 514.954163,341.801849 515.092834,343.290161 
	C515.705261,349.865021 516.380737,356.433990 517.166504,363.211914 
	C517.518127,363.665222 517.759949,363.886078 518.374512,364.254364 
	C519.674866,364.609619 520.659302,365.048828 521.571472,364.930603 
	C526.183228,364.333008 527.590393,366.338531 527.151672,370.773285 
	C526.987183,372.435791 528.239563,374.238434 528.845947,375.977203 
	C528.882080,376.741333 528.918274,377.505493 528.603577,378.856964 
	C526.543274,382.420807 526.066406,385.311584 528.845825,387.976044 
	C528.887756,388.740326 528.929688,389.504578 528.610229,390.865356 
	C526.588501,395.395203 525.848083,399.281281 528.840637,402.975464 
	C528.884216,405.033630 528.927795,407.091766 528.608154,409.808350 
	C527.839111,412.190613 527.136108,413.905396 527.083313,415.640015 
	C526.926453,420.790985 526.862976,425.956482 527.075562,431.103394 
	C527.248413,435.286530 525.833862,437.275726 521.375244,437.111176 
	C519.592712,437.045380 517.766235,438.171967 515.959717,438.755737 
	C515.875122,443.553558 515.613770,448.358795 515.814087,453.144714 
	C515.873779,454.571014 516.962646,456.206360 518.039185,457.289429 
	C520.951538,460.219452 524.110657,462.904175 527.331848,465.831604 
	C536.505432,453.096863 546.058716,439.835022 555.875000,425.994202 
	C556.259216,425.247009 556.380432,425.078735 556.751099,424.652588 
	C557.137756,412.697144 557.283508,400.999603 557.377197,389.301666 
	C557.380554,388.885742 556.868042,388.465698 556.405029,388.038879 
	C556.214050,388.030182 555.962769,387.742065 555.712280,387.483643 
	C554.570557,386.852783 553.707581,386.262390 552.783630,386.142670 
	C546.009338,385.265106 545.994446,385.294830 545.988098,378.418457 
	C545.971375,360.185699 545.979675,341.952911 545.948547,323.720184 
	C545.932434,314.306793 545.904419,314.308746 555.048096,312.451935 
	C555.366760,312.387238 555.661926,312.206451 555.978760,311.821960 
	C555.993286,311.393311 555.997070,311.222473 556.103149,310.940643 
	C556.205444,310.829681 556.507019,310.841980 556.745117,310.505890 
	C557.318298,308.256470 557.899109,306.348755 557.942932,304.428772 
	C558.078735,298.474945 557.786743,292.501892 558.172607,286.569611 
	C558.273804,285.013031 560.003296,282.604340 561.381348,282.282043 
	C564.554199,281.540070 565.009949,284.197235 565.022949,286.710785 
	C565.031494,288.365387 565.008545,290.021362 565.068909,291.674225 
	C565.303345,298.091095 565.565430,304.507019 566.046387,310.947205 
	C566.275574,310.971130 566.731262,311.005768 567.012878,311.320557 
	C569.842285,311.716217 572.390137,311.797119 575.101013,312.270630 
	C575.508972,314.459473 575.961121,316.254974 575.966919,318.051941 
	C576.033508,338.643005 575.962219,359.234802 576.106323,379.825134 
	C576.135925,384.059540 575.127258,386.535309 570.302734,386.216003 
	C569.241028,386.145752 568.096558,387.327087 566.990173,387.932068 
	C566.990173,395.022125 566.990173,402.112152 566.990173,409.202209 
	C567.296509,409.323608 567.602905,409.445007 567.909241,409.566406 
	C592.578979,374.606476 617.248718,339.646576 642.176331,304.321320 
	C633.109253,297.361816 624.173401,290.503021 615.119019,283.115356 
	C613.539368,281.526459 612.078125,280.466339 610.616943,279.406250 
	C610.616943,279.406250 610.552979,279.405365 610.650269,278.905701 
	C610.654175,277.150574 610.560852,275.895081 610.467529,274.639618 
	C610.467529,274.639618 610.718079,274.541138 611.131775,274.620667 
	C615.358582,272.754761 619.171631,270.809357 622.984741,268.863922 
	C622.984741,268.863922 622.967957,268.957031 623.297485,268.945404 
	C625.080627,268.231537 626.534180,267.529297 627.987793,266.827087 
	C627.987793,266.827087 627.973572,266.940948 628.321289,266.933777 
	C637.214294,263.661163 645.763367,260.405090 654.288208,257.086975 
	C654.555054,256.983093 654.572388,256.238342 654.706116,255.792389 
	C675.723450,247.154953 696.680969,238.367233 717.791321,229.963425 
	C724.969543,227.105850 729.017639,231.138199 727.539673,238.744446 
	C724.595215,253.898300 721.778381,269.076965 718.513184,284.853699 
	C717.758789,287.021057 717.400085,288.580078 717.041382,290.139069 
	C717.041382,290.139069 717.025574,290.582092 716.773865,291.095215 
	C714.764709,299.794830 712.930603,307.966309 711.319519,316.181488 
	C711.025696,317.679871 711.641663,319.356720 711.837646,320.951172 
	C710.610718,328.833069 709.332031,336.707397 708.173218,344.599304 
	C707.255432,350.850189 704.234558,352.151215 699.080994,348.231140 
	C692.325256,343.092468 685.675720,337.814453 678.965027,332.616333 
	C677.669189,331.612549 676.302002,330.700775 674.511536,329.420319 
	C670.268982,335.018005 666.048767,340.326294 662.104919,345.832520 
	C639.429932,377.490540 616.821472,409.196198 594.187744,440.883728 
	C590.265198,446.375305 586.329651,451.857574 582.717529,457.844971 
	C591.673279,458.269806 600.311646,458.193848 608.950012,458.117920 
	C609.421265,458.078613 609.892578,458.039307 611.034424,458.258179 
	C613.815796,458.959442 615.920349,459.747986 618.038513,459.786591 
	C628.028503,459.968567 638.022278,459.945068 648.014709,459.994873 
	C648.014709,459.994873 647.997559,460.002441 647.994263,460.431854 
	C648.013062,462.618622 648.035156,464.375977 648.057251,466.133331 
	C648.057190,466.133331 648.046509,466.042755 647.793579,466.141602 
	C647.040039,466.872375 646.539490,467.504333 646.038940,468.136292 
	C646.038940,468.136292 645.996643,468.037781 645.850159,468.187592 
	C645.470764,468.593140 645.237854,468.848877 645.004944,469.104614 
	C645.004944,469.104614 644.976501,468.992920 644.980652,469.098602 
	C644.888428,469.444244 644.860840,469.695831 644.902039,469.959045 
	C630.401855,486.030487 616.073547,502.261200 601.367188,518.141724 
	C565.821167,556.525574 530.105225,594.752136 494.433502,633.019409 
	C491.937469,635.697021 489.423645,638.412720 486.591919,640.708435 
	C483.273682,643.398621 479.274231,644.569580 475.567657,641.689697 
	C471.628113,638.628723 472.485565,634.595337 474.780396,630.919006 
	C485.534393,613.690796 496.304932,596.472046 507.205505,579.336426 
	C522.397095,555.455383 537.716248,531.655518 552.953491,507.803436 
	C553.833374,506.426117 554.468384,504.892303 554.727173,502.978729 
	C552.596741,502.344604 550.956482,502.008026 549.315857,502.005798 
	C534.852417,501.986359 520.388855,502.026367 505.925354,502.048798 
	C505.925354,502.048798 505.992432,502.010681 505.773926,501.867462 
	C505.015076,501.487366 504.474731,501.250488 503.934387,501.013580 
	C495.370422,492.646545 486.806458,484.279541 477.913269,475.408722 
	C477.367676,474.590851 477.151337,474.276825 476.934998,473.962769 
	C476.934998,473.962769 477.034088,473.976166 476.849670,473.838135 
	C476.418213,473.460022 476.171173,473.219940 475.924103,472.979858 
	C475.924103,472.979858 476.020844,472.977570 475.839294,472.843262 
	C475.415588,472.463928 475.173431,472.218933 474.931274,471.973938 
	C474.931274,471.973938 475.028259,471.962769 474.806915,471.852661 
	C474.298401,471.511597 474.011261,471.280579 473.724121,471.049561 
	C472.552246,469.984833 471.380402,468.920105 469.856812,467.395569 
	C469.245117,466.639435 468.985168,466.343048 468.725220,466.046692 
	C466.569244,463.896667 464.413239,461.746674 462.059143,459.147644 
	C461.580719,458.453247 461.300415,458.207855 461.020111,457.962463 
	C456.301788,453.558899 451.583496,449.155304 446.646332,444.547455 
	C426.630280,471.192627 406.186127,498.407684 385.146423,525.904297 
	C381.722900,530.167419 378.894897,534.148926 376.066895,538.130493 
	C376.066925,538.130493 376.057739,538.057190 375.771301,538.162659 
	C374.670135,539.560181 373.855408,540.852234 373.040710,542.144287 
	C373.021759,542.451599 372.893860,542.703613 372.050842,542.987488 
	C367.055145,543.631531 362.679474,544.423889 358.272461,544.682739 
	C353.334808,544.972656 348.368378,544.824890 343.415222,544.781128 
	C339.941467,544.750427 336.404205,544.948486 333.014008,544.360168 
	C329.546875,543.758545 328.232178,541.809937 330.667603,538.289612 
	C331.910065,536.493652 332.237701,534.064819 332.978821,531.922058 
z"/>
<path fill="#2EB56E" opacity="1.000000" stroke="none" 
	d="
M740.346619,715.201660 
	C761.819824,742.528442 746.571045,784.593933 712.077881,792.924377 
	C707.434021,794.045959 702.591431,794.344604 697.039429,794.773743 
	C688.100403,794.347595 679.960938,793.989380 671.825806,794.071472 
	C667.593018,794.114197 665.897949,792.760498 665.918640,788.337585 
	C666.053589,759.533875 666.070190,730.728760 665.912781,701.925293 
	C665.887146,697.228821 667.695618,695.896057 672.108826,695.929504 
	C678.385498,695.977173 684.666687,695.425049 690.945984,695.129150 
	C693.011047,695.083130 695.076172,695.037109 697.790771,695.357422 
	C705.258362,697.327271 712.075867,698.933350 718.894958,700.532532 
	C720.959534,701.016724 723.028687,701.481567 725.095703,701.955322 
	C725.095703,701.955261 725.037659,701.980896 725.154785,702.271729 
	C726.855408,703.373047 728.438965,704.183472 730.022522,704.993835 
	C730.347961,705.009888 730.623352,705.135620 731.069702,705.878357 
	C731.969360,706.865051 732.648010,707.344299 733.326660,707.823608 
	C733.326660,707.823608 733.211121,708.012634 733.281128,708.150513 
	C733.605835,708.513977 733.860535,708.739624 734.115173,708.965271 
	C734.115173,708.965271 734.033020,708.966003 734.196045,709.122375 
	C734.614258,709.505249 734.869446,709.731689 735.124573,709.958191 
	C735.124573,709.958191 735.040833,709.958801 735.202271,710.116089 
	C735.617188,710.502380 735.870667,710.731384 736.124146,710.960388 
	C736.124146,710.960388 736.040100,710.960266 736.200256,711.118286 
	C736.611511,711.507080 736.862610,711.737915 737.113708,711.968750 
	C737.113708,711.968750 737.032349,711.967896 737.190674,712.128052 
	C737.598572,712.519531 737.848083,712.750854 738.097595,712.982178 
	C738.097595,712.982178 737.981689,712.829590 738.168213,713.098022 
	C739.018738,713.978149 739.682678,714.589905 740.346619,715.201660 
M685.048279,715.864990 
	C685.090515,719.252319 685.132690,722.639587 685.090271,726.940613 
	C685.118530,730.617859 685.146790,734.295105 685.049194,738.777222 
	C685.090942,739.859924 685.132629,740.942627 685.089783,742.956177 
	C685.089783,754.214050 685.089783,765.471924 685.089783,776.637390 
	C694.099182,778.073730 704.252686,776.937561 712.593567,773.664001 
	C725.874939,766.492493 731.960632,752.697815 728.578125,737.431396 
	C725.429626,723.221741 713.578552,713.842896 697.036194,713.053833 
	C693.890259,712.989319 690.735657,712.776245 687.604004,712.958130 
	C686.756226,713.007385 685.977905,714.251648 685.048279,715.864990 
z"/>
<path fill="#2EB56E" opacity="1.000000" stroke="none" 
	d="
M361.851013,775.939636 
	C357.715515,788.162964 346.511597,795.482300 333.365204,796.167908 
	C325.193359,796.593994 317.216278,797.595154 309.219666,795.007751 
	C301.024597,792.356201 293.622162,788.478394 286.947693,782.020996 
	C290.736145,776.957703 294.470459,771.966797 298.336609,766.799683 
	C306.113739,773.169434 314.327606,777.868958 324.201721,778.205505 
	C328.090302,778.337952 332.166229,777.661072 335.893402,776.504089 
	C339.522430,775.377502 341.997711,772.562317 342.282959,768.376282 
	C342.568756,764.181335 340.502991,761.144409 337.016815,759.491272 
	C331.781372,757.008789 326.244171,755.171448 320.900909,752.905151 
	C314.188904,750.058228 307.359009,747.404541 300.924194,744.014221 
	C295.274231,741.037292 291.682617,735.989258 290.355042,728.914673 
	C292.012634,721.085205 293.489563,713.985962 294.966492,706.886780 
	C294.966492,706.886780 294.989624,706.983826 295.199127,706.838501 
	C295.936066,706.097351 296.463501,705.501526 296.990967,704.905762 
	C296.990967,704.905762 297.001862,704.998108 297.148743,704.830200 
	C297.532227,704.410217 297.768829,704.158142 298.005432,703.906006 
	C298.005432,703.906006 298.005676,704.005432 298.150452,703.833984 
	C298.533081,703.411560 298.770966,703.160645 299.008850,702.909729 
	C299.008850,702.909729 299.018494,703.011536 299.146301,702.807434 
	C299.499908,702.314758 299.725708,702.026184 299.951477,701.737610 
	C306.155975,696.664978 313.001373,693.824768 321.263428,694.831665 
	C325.130066,695.302856 329.113434,695.241089 333.010040,694.956665 
	C342.490143,694.264587 350.306702,698.430115 358.072418,702.968140 
	C360.844177,704.587830 360.694641,706.312744 358.844818,708.560059 
	C356.108948,711.883850 353.516022,715.325317 350.217712,718.934692 
	C349.322510,719.198181 349.071747,719.243652 348.820953,719.289185 
	C348.820953,719.289185 348.807220,719.177856 348.685730,718.879150 
	C346.976837,717.790344 345.389435,717.000183 343.802063,716.210022 
	C343.802063,716.210022 343.859161,716.081543 343.652802,715.910217 
	C342.588135,715.510864 341.729828,715.282776 340.871552,715.054688 
	C340.871552,715.054688 340.975891,715.037476 340.782471,714.792603 
	C336.748596,712.009766 332.797821,709.999573 328.025055,711.920898 
	C326.941772,711.953918 325.858459,711.987000 324.122070,711.804199 
	C322.327087,711.946594 321.185211,712.304810 320.043365,712.663086 
	C310.630829,716.229431 308.726135,721.638245 314.890533,728.819153 
	C316.203766,729.914917 317.190796,730.413818 318.177826,730.912659 
	C318.177826,730.912659 318.034637,730.944458 318.213287,731.175476 
	C319.608215,732.216736 320.724762,733.290527 322.056946,733.794434 
	C330.539825,737.003113 339.062866,740.106812 347.598999,743.171692 
	C348.288361,743.419189 349.175629,743.115417 349.970947,743.067749 
	C351.556152,744.092102 353.141357,745.116394 355.066162,746.629028 
	C355.629211,747.421021 355.852661,747.724670 356.076141,748.028381 
	C356.076141,748.028381 355.974579,748.017517 356.155945,748.156921 
	C356.586212,748.535706 356.835144,748.775085 357.084106,749.014465 
	C357.084106,749.014465 356.985565,749.015015 357.161316,749.155212 
	C357.582336,749.537720 357.827667,749.779968 358.072998,750.022278 
	C358.072998,750.022278 357.976837,749.976257 358.090210,750.216125 
	C358.513306,750.973206 358.823059,751.490417 359.132812,752.007629 
	C359.132812,752.007629 359.039825,751.966675 359.127563,752.294800 
	C361.898529,758.895691 362.739594,765.352112 361.412079,772.102051 
	C361.175293,773.305908 361.685638,774.656677 361.851013,775.939636 
z"/>
<path fill="#2EB36D" opacity="1.000000" stroke="none" 
	d="
M510.939209,695.140320 
	C516.006836,695.096313 521.074524,695.052307 526.786987,695.182678 
	C527.934753,695.286255 528.437622,695.215454 528.940491,695.144653 
	C529.726379,695.094910 530.512268,695.045227 531.941956,695.219360 
	C533.703125,695.343872 534.820435,695.244446 535.937805,695.145081 
	C539.329285,695.096680 542.720703,695.048279 546.544922,695.511841 
	C546.986206,698.671021 547.015747,701.318237 546.999451,703.965271 
	C546.956787,710.892151 546.878174,710.978516 540.144897,710.988953 
	C529.887024,711.004883 519.627075,710.893127 509.372833,711.088318 
	C507.231476,711.129089 505.111084,712.268494 502.992523,713.191895 
	C502.957764,713.670288 502.911499,713.858337 502.871643,714.161316 
	C502.864471,714.502136 502.864807,714.729004 502.961243,715.396179 
	C503.093628,718.213684 503.143768,720.591980 503.193909,722.970276 
	C503.152771,723.736023 503.111633,724.501770 503.088348,726.094116 
	C503.144714,729.612732 503.183197,732.304688 503.238281,735.218811 
	C503.254852,735.440918 503.597839,735.725159 503.597839,735.725159 
	C503.597839,735.725159 504.041168,735.681458 504.079224,735.774048 
	C504.117279,735.866638 503.998779,736.028015 504.348328,736.250854 
	C514.122864,736.656067 523.547241,736.908569 532.973145,737.000793 
	C542.218811,737.091187 542.020020,737.020569 542.062012,746.408264 
	C542.082031,750.878235 540.256531,752.134399 536.108887,752.046692 
	C527.161682,751.857361 518.206421,751.927551 509.256744,752.054382 
	C507.172333,752.083862 505.097137,752.763855 503.017700,753.144531 
	C503.012085,760.979797 503.006470,768.815125 503.352051,777.334473 
	C505.628937,778.341736 507.552399,778.928467 509.480682,778.944763 
	C520.624817,779.038879 531.770874,779.074463 542.914490,778.959229 
	C546.485107,778.922363 548.246521,780.194214 547.975159,783.890564 
	C547.878052,785.213745 547.840454,786.565918 547.995789,787.878784 
	C548.576782,792.789612 546.257324,794.135681 541.614380,794.081909 
	C524.483521,793.883423 507.347229,793.868164 490.216949,794.089661 
	C485.387024,794.152161 483.906952,792.442749 483.933380,787.722900 
	C484.092468,759.279358 484.118317,730.833862 483.915070,702.390869 
	C483.878235,697.238464 485.724182,695.796265 490.617401,695.894043 
	C497.383606,696.029358 504.164581,695.426819 510.939209,695.140320 
z"/>
<path fill="#2EB46D" opacity="1.000000" stroke="none" 
	d="
M459.814392,738.941956 
	C456.851929,750.558838 448.431976,756.181885 436.892181,759.389954 
	C435.105743,759.710327 434.033447,759.803528 432.600464,759.702332 
	C424.593506,759.366150 416.946930,759.144836 409.301239,759.171387 
	C408.199860,759.175232 407.102600,760.372314 406.042969,761.473877 
	C406.024323,765.298828 405.966156,768.667114 405.907471,772.152954 
	C405.883514,772.499939 405.883514,772.731201 405.989929,773.406677 
	C406.014923,776.245850 405.956909,778.642700 405.729187,781.342285 
	C405.674561,783.417053 405.789642,785.189087 405.985565,787.396606 
	C406.021240,789.894287 405.976074,791.956604 405.467926,793.994141 
	C399.353790,793.966370 393.702637,793.963318 388.036621,793.494385 
	C388.007050,763.603638 388.017395,734.178772 387.934143,704.754211 
	C387.926758,702.136841 387.310272,699.521240 387.368622,696.765015 
	C390.053253,696.421021 392.354736,695.970215 394.637115,696.052246 
	C410.451538,696.620483 426.261963,697.299622 442.261414,698.244873 
	C444.461670,699.366150 446.474213,700.185669 448.343323,701.124512 
	C448.199921,701.243774 447.924866,700.991699 448.057251,700.965088 
	C448.445496,701.002747 448.704010,701.055542 449.219910,701.101196 
	C449.638214,701.151428 449.801758,701.197327 449.965271,701.243225 
	C451.569824,702.958191 453.174347,704.673157 454.884338,706.817627 
	C455.049377,707.496582 455.190521,707.700500 455.413116,707.858887 
	C455.413116,707.858887 455.239990,708.066284 455.303284,708.182251 
	C455.619843,708.538635 455.873077,708.778992 456.126312,709.019348 
	C456.126312,709.019348 456.012543,708.932434 456.064331,709.276123 
	C457.195435,715.959717 458.413818,722.280396 459.297913,728.647461 
	C459.768616,732.037476 459.660980,735.507874 459.814392,738.941956 
M405.807434,741.257996 
	C405.741119,741.496155 405.760468,741.731384 405.973633,742.453003 
	C405.988708,742.619324 406.003815,742.785706 406.453400,743.581299 
	C415.204865,745.956848 423.897919,746.089233 432.623840,742.261841 
	C440.088440,738.401855 442.437347,732.979736 440.727570,723.555786 
	C439.481567,716.688049 435.691254,713.284302 427.396881,712.632324 
	C421.125153,712.139343 414.792908,712.340149 408.489685,712.413147 
	C407.611969,712.423340 406.746277,713.470520 405.656860,714.401917 
	C405.735931,714.923584 405.815002,715.445190 406.018982,716.901062 
	C405.977020,724.943909 405.935028,732.986816 405.807434,741.257996 
z"/>
<path fill="#2EB36D" opacity="1.000000" stroke="none" 
	d="
M594.989075,712.208740 
	C594.936096,719.807373 594.883179,727.405945 595.264282,735.691406 
	C606.385010,736.590759 617.071167,736.852356 627.758911,736.966797 
	C629.498779,736.985352 631.245728,736.352844 632.989380,736.021301 
	C633.290833,741.055969 633.592285,746.090576 633.382080,751.565186 
	C622.152222,751.998230 611.433533,751.938721 600.716187,752.032959 
	C598.804199,752.049744 596.897705,752.703918 594.988708,753.063843 
	C594.988708,753.063843 594.999939,752.975525 594.752808,753.238037 
	C594.107300,754.006897 593.371399,754.507019 593.361694,755.020813 
	C593.234375,761.770996 593.135803,768.524353 593.244995,775.273376 
	C593.259949,776.198853 594.435852,777.105652 595.074219,778.021057 
	C595.074219,778.021057 594.960022,778.038635 595.320435,778.170898 
	C597.792969,778.531860 599.903870,778.943909 602.017578,778.959106 
	C614.383789,779.047363 626.750732,779.042725 639.117432,779.069458 
	C639.088989,781.454895 639.060547,783.840332 638.936035,786.799316 
	C638.903320,787.921387 638.966675,788.469971 639.030029,789.018555 
	C639.294922,790.310974 639.559875,791.603333 639.275391,793.340881 
	C619.397278,793.850464 600.068115,793.853943 580.740479,794.026062 
	C576.395874,794.064697 575.979492,791.608459 575.984985,788.227783 
	C576.032288,759.398315 576.073914,730.568359 575.946716,701.739319 
	C575.927490,697.390686 577.471252,695.901306 581.787231,695.944946 
	C598.283386,696.111755 614.782227,695.993591 631.280090,696.012207 
	C637.769775,696.019531 637.944153,696.231812 637.970337,702.806396 
	C637.974365,703.806213 637.884094,704.812866 637.970581,705.804749 
	C638.311279,709.710022 636.518127,711.096985 632.675415,711.041138 
	C622.012451,710.886108 611.345093,710.927917 600.681091,711.041992 
	C598.779785,711.062256 596.886230,711.801453 594.989075,712.208740 
z"/>
<path fill="#2FB56E" opacity="1.000000" stroke="none" 
	d="
M444.129272,533.035461 
	C444.097870,514.321289 444.066498,495.607117 444.343689,476.334717 
	C445.084747,475.249634 445.517273,474.722839 445.949829,474.196045 
	C448.678497,474.141083 451.407166,474.086151 454.564026,474.547607 
	C454.995667,490.693726 455.008423,506.323486 454.999573,521.953247 
	C454.992340,534.694458 455.877899,532.761597 444.129272,533.035461 
z"/>
<path fill="#38DE7F" opacity="1.000000" stroke="none" 
	d="
M595.458008,712.225159 
	C596.886230,711.801453 598.779785,711.062256 600.681091,711.041992 
	C611.345093,710.927917 622.012451,710.886108 632.675415,711.041138 
	C636.518127,711.096985 638.311279,709.710022 637.970581,705.804749 
	C637.884094,704.812866 637.974365,703.806213 637.970337,702.806396 
	C637.944153,696.231812 637.769775,696.019531 631.280090,696.012207 
	C614.782227,695.993591 598.283386,696.111755 581.787231,695.944946 
	C577.471252,695.901306 575.927490,697.390686 575.946716,701.739319 
	C576.073914,730.568359 576.032288,759.398315 575.984985,788.227783 
	C575.979492,791.608459 576.395874,794.064697 580.740479,794.026062 
	C600.068115,793.853943 619.397278,793.850464 639.250244,793.745605 
	C639.659363,794.242859 639.544189,794.780457 638.836243,795.414307 
	C617.143372,795.419434 596.043152,795.328308 574.942993,795.237183 
	C574.942993,795.237183 574.943115,795.057617 574.838623,794.585815 
	C574.736145,761.062500 574.738220,728.010864 574.740234,694.959290 
	C596.009827,694.959290 617.279358,694.959290 638.782471,694.959290 
	C638.782471,700.893555 638.782471,706.326172 638.782471,712.241577 
	C624.471741,712.241577 610.199402,712.241577 595.458008,712.225159 
z"/>
<path fill="#38DE7F" opacity="1.000000" stroke="none" 
	d="
M510.475769,695.103516 
	C504.164581,695.426819 497.383606,696.029358 490.617401,695.894043 
	C485.724182,695.796265 483.878235,697.238464 483.915070,702.390869 
	C484.118317,730.833862 484.092468,759.279358 483.933380,787.722900 
	C483.906952,792.442749 485.387024,794.152161 490.216949,794.089661 
	C507.347229,793.868164 524.483521,793.883423 541.614380,794.081909 
	C546.257324,794.135681 548.576782,792.789612 547.995789,787.878784 
	C547.840454,786.565918 547.878052,785.213745 547.975159,783.890564 
	C548.246521,780.194214 546.485107,778.922363 542.914490,778.959229 
	C531.770874,779.074463 520.624817,779.038879 509.480682,778.944763 
	C507.552399,778.928467 505.628937,778.341736 503.354828,777.773560 
	C518.151978,777.528564 533.297546,777.528564 549.157715,777.528564 
	C549.157715,783.354919 549.157715,788.790161 548.625977,794.710083 
	C526.397339,795.138916 504.700348,795.083191 483.003357,795.027466 
	C483.003357,761.906067 483.003357,728.784546 483.003357,695.066650 
	C492.161255,695.066650 501.086792,695.066650 510.475769,695.103516 
z"/>
<path fill="#030216" opacity="1.000000" stroke="none" 
	d="
M664.896667,795.014832 
	C664.268921,793.238647 663.100708,791.464600 663.093933,789.686035 
	C662.980530,759.971130 662.989868,730.255554 663.070496,700.540466 
	C663.075073,698.848206 663.927917,697.158386 664.623413,695.699951 
	C664.872742,728.959900 664.884705,761.987366 664.896667,795.014832 
z"/>
<path fill="#33CB78" opacity="1.000000" stroke="none" 
	d="
M386.976654,696.904785 
	C387.310272,699.521240 387.926758,702.136841 387.934143,704.754211 
	C388.017395,734.178772 388.007050,763.603638 387.800781,793.397644 
	C387.131226,793.527954 386.682709,793.289001 386.234161,793.050110 
	C386.178619,792.869507 386.123077,792.688965 386.027893,791.791016 
	C385.954742,788.058167 385.921265,785.042725 385.887787,782.027344 
	C385.936493,781.261475 385.985199,780.495667 386.014282,778.886780 
	C385.959442,763.371643 385.924225,748.699585 385.889038,734.027466 
	C385.937653,731.637634 385.986267,729.247742 386.013947,725.961853 
	C385.956879,721.720093 385.920715,718.374329 385.884552,715.028625 
	C385.934937,713.944641 385.985352,712.860596 386.015320,710.951538 
	C385.959564,708.421631 385.924225,706.716919 385.888885,705.012146 
	C385.954987,702.309875 386.021088,699.607666 386.276917,696.599609 
	C386.648560,696.487549 386.818573,696.691162 386.976654,696.904785 
z"/>
<path fill="#38DE7F" opacity="1.000000" stroke="none" 
	d="
M567.438721,387.920654 
	C568.096558,387.327087 569.241028,386.145752 570.302734,386.216003 
	C575.127258,386.535309 576.135925,384.059540 576.106323,379.825134 
	C575.962219,359.234802 576.033508,338.643005 575.966919,318.051941 
	C575.961121,316.254974 575.508972,314.459473 575.253784,312.010986 
	C575.826416,311.254944 576.409302,311.151184 576.992249,311.047424 
	C577.103333,311.225159 577.214417,311.402863 577.430481,312.243225 
	C577.571472,336.929169 577.607422,360.952454 577.542725,385.092682 
	C577.339783,385.536346 577.422729,385.808197 577.766357,386.271301 
	C577.878845,386.684937 577.915771,386.852539 577.952637,387.020111 
	C574.597473,387.316498 571.242371,387.612885 567.438721,387.920654 
z"/>
<path fill="#33CB78" opacity="1.000000" stroke="none" 
	d="
M517.033325,363.005096 
	C516.380737,356.433990 515.705261,349.865021 515.092834,343.290161 
	C514.954163,341.801849 515.325073,340.210052 514.927124,338.818665 
	C514.573364,337.581604 513.479065,336.556335 512.711609,335.437592 
	C511.799408,336.579102 510.160645,337.682587 510.098572,338.868591 
	C509.802826,344.519409 510.142273,350.204651 509.815430,355.852142 
	C509.682831,358.143402 508.431305,360.369904 507.469971,362.351685 
	C507.191345,352.538025 507.131714,342.998535 507.072083,333.459076 
	C510.251465,333.595001 513.430847,333.730927 517.031311,334.383820 
	C517.312683,344.268860 517.173035,353.636993 517.033325,363.005096 
z"/>
<path fill="#38DE7F" opacity="1.000000" stroke="none" 
	d="
M665.368164,795.079956 
	C664.884705,761.987366 664.872742,728.959900 664.925293,695.468140 
	C673.332520,695.020996 681.675415,695.038147 690.482117,695.092163 
	C684.666687,695.425049 678.385498,695.977173 672.108826,695.929504 
	C667.695618,695.896057 665.887146,697.228821 665.912781,701.925293 
	C666.070190,730.728760 666.053589,759.533875 665.918640,788.337585 
	C665.897949,792.760498 667.593018,794.114197 671.825806,794.071472 
	C679.960938,793.989380 688.100403,794.347595 696.596680,794.720520 
	C686.583435,794.993591 676.211548,795.069336 665.368164,795.079956 
z"/>
<path fill="#33CB78" opacity="1.000000" stroke="none" 
	d="
M332.727203,532.128906 
	C332.237701,534.064819 331.910065,536.493652 330.667603,538.289612 
	C328.232178,541.809937 329.546875,543.758545 333.014008,544.360168 
	C336.404205,544.948486 339.941467,544.750427 343.415222,544.781128 
	C348.368378,544.824890 353.334808,544.972656 358.272461,544.682739 
	C362.679474,544.423889 367.055145,543.631531 371.853088,543.076599 
	C370.733215,544.127808 369.204834,545.176941 367.144775,546.294434 
	C354.894257,546.550537 343.175385,546.738342 331.456543,546.926208 
	C326.085022,542.125977 326.180420,540.760315 332.727203,532.128906 
z"/>
<path fill="#030216" opacity="1.000000" stroke="none" 
	d="
M483.235168,795.327515 
	C504.700348,795.083191 526.397339,795.138916 548.565186,795.186157 
	C547.247009,795.782410 545.461609,796.900146 543.668579,796.912598 
	C525.292114,797.040405 506.914215,797.024292 488.537323,796.928223 
	C486.845001,796.919373 485.156982,796.080872 483.235168,795.327515 
z"/>
<path fill="#38DE7F" opacity="1.000000" stroke="none" 
	d="
M555.968018,312.079742 
	C555.661926,312.206451 555.366760,312.387238 555.048096,312.451935 
	C545.904419,314.308746 545.932434,314.306793 545.948547,323.720184 
	C545.979675,341.952911 545.971375,360.185699 545.988098,378.418457 
	C545.994446,385.294830 546.009338,385.265106 552.783630,386.142670 
	C553.707581,386.262390 554.570557,386.852783 555.265137,387.503723 
	C552.384216,387.740540 549.699768,387.698822 546.785767,387.511810 
	C546.025696,387.253448 545.495300,387.140381 544.964905,387.027283 
	C544.964905,387.027283 544.722168,386.975067 544.666870,386.551086 
	C544.605835,377.134613 544.600098,368.142120 544.676697,358.826294 
	C544.703857,358.287567 544.648682,358.072113 544.607910,357.397491 
	C544.610168,350.005402 544.597961,343.072449 544.715942,335.733337 
	C544.698486,333.130707 544.550720,330.934326 544.399780,328.311554 
	C544.376831,325.598938 544.357178,323.312653 544.425781,320.905609 
	C544.600220,320.469818 544.526978,320.198425 544.244446,319.530029 
	C544.138855,316.720703 544.083130,314.352112 544.027405,311.983490 
	C544.241333,311.764130 544.456299,311.545746 545.179932,311.205872 
	C548.781982,311.149506 551.876343,311.215637 555.101196,311.454865 
	C555.448059,311.825806 555.693542,311.976410 555.968018,312.079742 
z"/>
<path fill="#030216" opacity="1.000000" stroke="none" 
	d="
M574.461914,695.296997 
	C574.738220,728.010864 574.736145,761.062500 574.748779,794.585938 
	C574.178040,793.248291 573.088684,791.440613 573.082214,789.628967 
	C572.976196,760.036499 572.987244,730.443542 573.057373,700.850891 
	C573.061462,699.111328 573.791382,697.373413 574.461914,695.296997 
z"/>
<path fill="#030216" opacity="1.000000" stroke="none" 
	d="
M544.585693,336.139526 
	C544.597961,343.072449 544.610168,350.005402 544.472656,357.533203 
	C544.413391,358.468567 544.503845,358.809082 544.594360,359.149597 
	C544.600098,368.142120 544.605835,377.134613 544.551086,386.595825 
	C544.001038,385.536804 543.091736,384.010956 543.085083,382.481171 
	C542.988831,360.361847 543.004456,338.241974 543.036682,316.122284 
	C543.038330,314.987244 543.431946,313.852783 543.835266,312.350769 
	C544.083130,314.352112 544.138855,316.720703 544.179688,319.797028 
	C544.222473,320.678619 544.280029,320.852509 544.337524,321.026398 
	C544.357178,323.312653 544.376831,325.598938 544.273438,328.723236 
	C544.295471,331.754028 544.440552,333.946777 544.585693,336.139526 
z"/>
<path fill="#38DE7F" opacity="1.000000" stroke="none" 
	d="
M502.981018,712.901611 
	C505.111084,712.268494 507.231476,711.129089 509.372833,711.088318 
	C519.627075,710.893127 529.887024,711.004883 540.144897,710.988953 
	C546.878174,710.978516 546.956787,710.892151 546.999451,703.965271 
	C547.015747,701.318237 546.986206,698.671021 547.003906,695.564087 
	C547.456116,696.980347 548.149841,698.842041 548.251648,700.735535 
	C548.454163,704.500916 548.330688,708.283875 547.954407,712.289917 
	C542.107178,712.471252 536.646484,712.332764 531.187988,712.393250 
	C521.784973,712.497375 512.383240,712.725464 502.981018,712.901611 
z"/>
<path fill="#030216" opacity="1.000000" stroke="none" 
	d="
M456.037994,473.991577 
	C456.687408,475.598572 457.888123,477.201080 457.901215,478.813263 
	C458.038269,495.629852 458.010284,512.448120 457.937531,529.265503 
	C457.931427,530.676941 457.269470,532.085571 456.660248,533.294678 
	C456.377502,530.775146 456.331390,528.456360 456.318420,526.137512 
	C456.221252,508.755524 456.130646,491.373566 456.037994,473.991577 
z"/>
<path fill="#030216" opacity="1.000000" stroke="none" 
	d="
M386.037231,695.112061 
	C387.603821,694.419128 389.177979,693.110107 390.735809,693.129272 
	C405.171661,693.306763 419.608917,693.604004 434.034576,694.157898 
	C436.522797,694.253479 438.958374,695.720825 441.225128,696.821411 
	C437.302094,696.410706 433.579803,695.203064 429.840942,695.149109 
	C415.242554,694.938599 400.638916,695.093201 386.037231,695.112061 
z"/>
<path fill="#030216" opacity="1.000000" stroke="none" 
	d="
M405.898895,781.039490 
	C405.956909,778.642700 406.014923,776.245850 406.026398,773.174500 
	C405.979858,772.499939 405.907990,772.035400 405.907990,772.035400 
	C405.966156,768.667114 406.024323,765.298828 406.491333,761.328003 
	C415.587158,760.449219 424.274139,760.172974 432.961121,759.896729 
	C434.033447,759.803528 435.105743,759.710327 436.576599,759.525024 
	C432.164185,760.288757 427.367157,761.775635 422.539642,761.882324 
	C407.981781,762.203979 408.101410,761.996277 407.917419,776.480347 
	C407.840546,782.530090 407.109375,788.571472 406.362427,794.835815 
	C406.049103,795.054932 406.019958,795.018677 406.024811,794.766357 
	C405.996765,794.348938 405.963837,794.183899 405.930878,794.018860 
	C405.976074,791.956604 406.021240,789.894287 406.029510,786.975403 
	C405.961395,784.425659 405.930145,782.732605 405.898895,781.039490 
z"/>
<path fill="#030216" opacity="1.000000" stroke="none" 
	d="
M517.166504,363.211914 
	C517.173035,353.636993 517.312683,344.268860 517.429688,334.477051 
	C518.241760,335.654083 519.708618,337.220917 519.796814,338.861816 
	C520.100281,344.510132 520.050781,350.188141 519.883057,355.847351 
	C519.765320,359.819305 520.724304,362.329620 525.378052,362.042755 
	C529.080627,361.814484 530.696594,363.553864 529.227051,367.219055 
	C529.196472,365.100983 528.884521,363.711060 526.252563,363.944885 
	C523.527588,364.187012 520.769104,364.051575 518.025269,364.081268 
	C517.759949,363.886078 517.518127,363.665222 517.166504,363.211914 
z"/>
<path fill="#38DE7F" opacity="1.000000" stroke="none" 
	d="
M565.817139,310.923279 
	C565.565430,304.507019 565.303345,298.091095 565.068909,291.674225 
	C565.008545,290.021362 565.031494,288.365387 565.022949,286.710785 
	C565.009949,284.197235 564.554199,281.540070 561.381348,282.282043 
	C560.003296,282.604340 558.273804,285.013031 558.172607,286.569611 
	C557.786743,292.501892 558.078735,298.474945 557.942932,304.428772 
	C557.899109,306.348755 557.318298,308.256470 556.784180,310.049164 
	C556.460022,300.304932 556.334839,290.681335 556.209595,281.057739 
	C559.129944,280.746246 562.050354,280.434723 565.601318,280.472290 
	C566.331787,290.213715 566.431519,299.606049 566.368652,309.204102 
	C566.076416,309.914307 565.946777,310.418793 565.817139,310.923279 
z"/>
<path fill="#030216" opacity="1.000000" stroke="none" 
	d="
M503.221680,734.996704 
	C503.183197,732.304688 503.144714,729.612732 503.148865,726.473877 
	C503.693237,726.655212 504.691895,727.346558 504.621185,727.901794 
	C503.749573,734.747559 508.266632,734.115051 512.699707,734.042603 
	C520.786560,733.910400 528.878540,733.925110 536.965088,734.065857 
	C538.828125,734.098267 540.678040,734.887573 542.308228,735.574707 
	C529.387878,735.889832 516.693359,735.958923 503.998779,736.028015 
	C503.998779,736.028015 504.117279,735.866638 503.959839,735.640442 
	C503.625580,735.251770 503.432007,735.112549 503.221680,734.996704 
z"/>
<path fill="#38DE7F" opacity="1.000000" stroke="none" 
	d="
M504.348328,736.250854 
	C516.693359,735.958923 529.387878,735.889832 542.550232,735.866333 
	C543.018005,741.360779 543.018005,746.809692 543.018005,753.041870 
	C529.883545,753.041870 516.915649,753.041870 503.482727,753.093201 
	C505.097137,752.763855 507.172333,752.083862 509.256744,752.054382 
	C518.206421,751.927551 527.161682,751.857361 536.108887,752.046692 
	C540.256531,752.134399 542.082031,750.878235 542.062012,746.408264 
	C542.020020,737.020569 542.218811,737.091187 532.973145,737.000793 
	C523.547241,736.908569 514.122864,736.656067 504.348328,736.250854 
z"/>
<path fill="#030216" opacity="1.000000" stroke="none" 
	d="
M575.201294,795.509949 
	C596.043152,795.328308 617.143372,795.419434 638.722046,795.601685 
	C637.461548,796.127136 635.724426,796.930237 633.983215,796.939087 
	C616.031555,797.030212 598.079102,797.022644 580.127319,796.938843 
	C578.569641,796.931580 577.015442,796.185547 575.201294,795.509949 
z"/>
<path fill="#030216" opacity="1.000000" stroke="none" 
	d="
M578.144897,386.652527 
	C577.915771,386.852539 577.878845,386.684937 577.820923,386.005951 
	C577.747803,385.321625 577.695618,385.148682 577.643372,384.975708 
	C577.607422,360.952454 577.571472,336.929169 577.638000,312.479370 
	C578.154419,313.440948 578.924194,314.827850 578.928955,316.217407 
	C579.005127,338.442780 578.993164,360.668457 578.956848,382.894012 
	C578.955017,384.024628 578.552917,385.154633 578.144897,386.652527 
z"/>
<path fill="#33CB78" opacity="1.000000" stroke="none" 
	d="
M516.416748,438.776184 
	C517.766235,438.171967 519.592712,437.045380 521.375244,437.111176 
	C525.833862,437.275726 527.248413,435.286530 527.075562,431.103394 
	C526.862976,425.956482 526.926453,420.790985 527.083313,415.640015 
	C527.136108,413.905396 527.839111,412.190613 528.545532,410.245667 
	C528.872986,419.030548 528.899902,428.036499 528.580078,437.540649 
	C527.494141,438.267731 526.755005,438.496613 526.015869,438.725464 
	C522.968506,438.749207 519.921082,438.772919 516.416748,438.776184 
z"/>
<path fill="#38DE7F" opacity="1.000000" stroke="none" 
	d="
M455.786194,474.017090 
	C456.130646,491.373566 456.221252,508.755524 456.318420,526.137512 
	C456.331390,528.456360 456.377502,530.775146 456.407471,533.564331 
	C452.340668,533.937561 448.274689,533.840454 444.168976,533.389404 
	C455.877899,532.761597 454.992340,534.694458 454.999573,521.953247 
	C455.008423,506.323486 454.995667,490.693726 455.015625,474.605164 
	C455.204132,474.111816 455.369263,474.077209 455.786194,474.017090 
z"/>
<path fill="#030216" opacity="1.000000" stroke="none" 
	d="
M555.996948,281.338654 
	C556.334839,290.681335 556.460022,300.304932 556.546143,310.385254 
	C556.507019,310.841980 556.205444,310.829681 555.839355,310.969849 
	C555.305725,311.167267 555.138245,311.224518 554.970703,311.281799 
	C551.876343,311.215637 548.781982,311.149506 545.341309,311.042236 
	C545.443481,310.792114 545.871887,310.488586 546.343567,310.388184 
	C554.986023,308.548370 554.895386,308.552185 555.029602,299.303680 
	C555.115173,293.406586 555.521606,287.514099 555.996948,281.338654 
z"/>
<path fill="#38DE7F" opacity="1.000000" stroke="none" 
	d="
M647.767700,459.698914 
	C638.022278,459.945068 628.028503,459.968567 618.038513,459.786591 
	C615.920349,459.747986 613.815796,458.959442 611.384827,458.320801 
	C623.216614,458.551117 635.368652,458.977020 647.767700,459.698914 
z"/>
<path fill="#38DE7F" opacity="1.000000" stroke="none" 
	d="
M639.388428,778.787109 
	C626.750732,779.042725 614.383789,779.047363 602.017578,778.959106 
	C599.903870,778.943909 597.792969,778.531860 595.311523,778.113831 
	C609.462341,777.852051 623.982422,777.773376 638.502625,777.740723 
	C638.887634,777.739868 639.273743,778.238892 639.388428,778.787109 
z"/>
<path fill="#38DE7F" opacity="1.000000" stroke="none" 
	d="
M386.051147,695.340332 
	C400.638916,695.093201 415.242554,694.938599 429.840942,695.149109 
	C433.579803,695.203064 437.302094,696.410706 441.426270,697.117676 
	C441.820587,697.147095 441.834503,697.082886 441.900696,697.284180 
	C441.966919,697.485413 442.116241,697.871094 442.104797,697.888672 
	C442.093384,697.906189 442.073669,697.943176 442.073669,697.943237 
	C426.261963,697.299622 410.451538,696.620483 394.637115,696.052246 
	C392.354736,695.970215 390.053253,696.421021 387.368622,696.765015 
	C386.818573,696.691162 386.648560,696.487549 386.326080,696.151794 
	C386.185516,696.009705 386.065033,695.568542 386.051147,695.340332 
z"/>
<path fill="#030216" opacity="1.000000" stroke="none" 
	d="
M502.992523,713.191895 
	C512.383240,712.725464 521.784973,712.497375 531.187988,712.393250 
	C536.646484,712.332764 542.107178,712.471252 548.075623,712.668579 
	C545.485291,713.210449 542.390869,713.893066 539.286255,713.943359 
	C529.981750,714.094055 520.670654,714.126282 511.367432,713.940552 
	C507.032135,713.854004 503.626556,714.085754 504.814178,719.906494 
	C504.973358,720.686707 504.131897,721.671143 503.473877,722.765625 
	C503.143768,720.591980 503.093628,718.213684 502.995972,715.167969 
	C502.948395,714.500488 502.865265,714.046326 502.865265,714.046326 
	C502.911499,713.858337 502.957764,713.670288 502.992523,713.191895 
z"/>
<path fill="#030216" opacity="1.000000" stroke="none" 
	d="
M547.015381,387.657104 
	C549.699768,387.698822 552.384216,387.740540 555.515686,387.762146 
	C555.962769,387.742065 556.214050,388.030182 556.408813,388.494446 
	C556.569580,400.942627 556.535645,412.926544 556.501709,424.910461 
	C556.380432,425.078735 556.259216,425.247009 555.970093,425.677216 
	C555.536743,418.496887 555.265930,411.054810 555.011230,403.612152 
	C554.971497,402.449768 555.004517,401.284912 555.004761,400.121185 
	C555.006897,390.301514 555.006958,390.301514 545.705322,388.139465 
	C546.133179,387.847046 546.574280,387.752075 547.015381,387.657104 
z"/>
<path fill="#33CB78" opacity="1.000000" stroke="none" 
	d="
M349.691803,742.864502 
	C349.175629,743.115417 348.288361,743.419189 347.598999,743.171692 
	C339.062866,740.106812 330.539825,737.003113 322.056946,733.794434 
	C320.724762,733.290527 319.608215,732.216736 318.197571,731.103821 
	C328.473022,734.754456 338.942841,738.707764 349.691803,742.864502 
z"/>
<path fill="#33CB78" opacity="1.000000" stroke="none" 
	d="
M711.921631,320.564392 
	C711.641663,319.356720 711.025696,317.679871 711.319519,316.181488 
	C712.930603,307.966309 714.764709,299.794830 716.740967,291.314392 
	C715.308411,300.739502 713.656982,310.458527 711.921631,320.564392 
z"/>
<path fill="#030216" opacity="1.000000" stroke="none" 
	d="
M566.531250,308.998383 
	C566.431519,299.606049 566.331787,290.213715 566.045654,280.429443 
	C566.570129,281.748474 567.817932,283.436035 567.893860,285.174805 
	C568.152832,291.103363 568.243408,297.062927 567.927002,302.985535 
	C567.666199,307.868652 568.969604,310.681702 574.411194,310.142242 
	C575.015015,310.082367 575.664673,310.484741 576.642639,310.860046 
	C576.409302,311.151184 575.826416,311.254944 575.090698,311.618347 
	C572.390137,311.797119 569.842285,311.716217 567.020630,310.981354 
	C566.674988,309.884399 566.603088,309.441376 566.531250,308.998383 
z"/>
<path fill="#030216" opacity="1.000000" stroke="none" 
	d="
M506.930145,333.888611 
	C507.131714,342.998535 507.191345,352.538025 507.158630,362.538361 
	C506.553619,363.294556 506.040955,363.589874 504.800110,363.945892 
	C501.058105,364.040771 498.044281,364.074951 495.030457,364.109131 
	C497.057251,363.398987 499.063873,362.172546 501.115265,362.092407 
	C504.741852,361.950775 505.989685,360.422363 506.036346,356.929413 
	C506.137054,349.390320 506.520477,341.855042 506.930145,333.888611 
z"/>
<path fill="#33CB78" opacity="1.000000" stroke="none" 
	d="
M459.911255,738.608154 
	C459.660980,735.507874 459.768616,732.037476 459.297913,728.647461 
	C458.413818,722.280396 457.195435,715.959717 456.107849,709.219238 
	C462.130219,718.009949 461.789612,728.046570 459.911255,738.608154 
z"/>
<path fill="#38DE7F" opacity="1.000000" stroke="none" 
	d="
M594.932922,777.566284 
	C594.435852,777.105652 593.259949,776.198853 593.244995,775.273376 
	C593.135803,768.524353 593.234375,761.770996 593.361694,755.020813 
	C593.371399,754.507019 594.107300,754.006897 594.796997,753.243530 
	C594.989380,761.028198 594.890503,769.069824 594.932922,777.566284 
z"/>
<path fill="#38DE7F" opacity="1.000000" stroke="none" 
	d="
M506.192169,502.398468 
	C520.388855,502.026367 534.852417,501.986359 549.315857,502.005798 
	C550.956482,502.008026 552.596741,502.344604 554.595581,502.724426 
	C539.577698,503.095245 524.201477,503.278412 508.824829,503.409821 
	C508.038177,503.416504 507.247711,502.978882 506.192169,502.398468 
z"/>
<path fill="#33CB78" opacity="1.000000" stroke="none" 
	d="
M654.344055,255.853394 
	C654.572388,256.238342 654.555054,256.983093 654.288208,257.086975 
	C645.763367,260.405090 637.214294,263.661163 628.264343,266.926514 
	C636.567139,263.255737 645.274597,259.585052 654.344055,255.853394 
z"/>
<path fill="#030216" opacity="1.000000" stroke="none" 
	d="
M385.713135,734.397644 
	C385.924225,748.699585 385.959442,763.371643 385.942017,778.508301 
	C385.590027,777.024475 385.020355,775.074036 385.035126,773.128052 
	C385.132141,760.340820 385.355225,747.554443 385.713135,734.397644 
z"/>
<path fill="#33CB78" opacity="1.000000" stroke="none" 
	d="
M724.838379,701.719421 
	C723.028687,701.481567 720.959534,701.016724 718.894958,700.532532 
	C712.075867,698.933350 705.258362,697.327271 698.229675,695.419067 
	C707.230896,695.745300 716.347046,696.775024 724.838379,701.719421 
z"/>
<path fill="#33CB78" opacity="1.000000" stroke="none" 
	d="
M344.664978,516.031006 
	C341.388947,520.831421 337.845215,525.826294 334.003845,530.886475 
	C337.269867,526.042969 340.833557,521.134155 344.664978,516.031006 
z"/>
<path fill="#38DE7F" opacity="1.000000" stroke="none" 
	d="
M361.975525,775.569580 
	C361.685638,774.656677 361.175293,773.305908 361.412079,772.102051 
	C362.739594,765.352112 361.898529,758.895691 359.148163,752.248291 
	C365.224304,758.984192 363.416473,767.123657 361.975525,775.569580 
z"/>
<path fill="#030216" opacity="1.000000" stroke="none" 
	d="
M406.062195,795.074097 
	C399.607330,798.300720 393.050751,797.649963 386.702637,795.317871 
	C393.303040,795.067322 399.661499,795.043030 406.019958,795.018677 
	C406.019958,795.018677 406.049103,795.054932 406.062195,795.074097 
z"/>
<path fill="#38DE7F" opacity="1.000000" stroke="none" 
	d="
M595.459045,753.055664 
	C596.897705,752.703918 598.804199,752.049744 600.716187,752.032959 
	C611.433533,751.938721 622.152222,751.998230 633.324219,752.031982 
	C632.276672,752.395508 630.777222,753.013550 629.273682,753.023865 
	C618.159363,753.099792 607.044250,753.054626 595.459045,753.055664 
z"/>
<path fill="#38DE7F" opacity="1.000000" stroke="none" 
	d="
M632.524353,735.965332 
	C631.245728,736.352844 629.498779,736.985352 627.758911,736.966797 
	C617.071167,736.852356 606.385010,736.590759 595.353027,736.147705 
	C607.358215,735.914673 619.708740,735.912048 632.524353,735.965332 
z"/>
<path fill="#38DE7F" opacity="1.000000" stroke="none" 
	d="
M294.704071,707.112366 
	C293.489563,713.985962 292.012634,721.085205 290.367188,728.543579 
	C288.905548,721.181824 290.002136,713.931030 294.704071,707.112366 
z"/>
<path fill="#33CB78" opacity="1.000000" stroke="none" 
	d="
M376.338196,537.942993 
	C378.894897,534.148926 381.722900,530.167419 384.837219,526.117432 
	C382.285492,529.951111 379.447510,533.853333 376.338196,537.942993 
z"/>
<path fill="#030216" opacity="1.000000" stroke="none" 
	d="
M331.885803,547.051025 
	C343.175385,546.738342 354.894257,546.550537 367.072815,546.611511 
	C363.255157,547.237671 358.976959,547.933289 354.700562,547.922180 
	C347.238129,547.902649 339.776825,547.448059 331.885803,547.051025 
z"/>
<path fill="#38DE7F" opacity="1.000000" stroke="none" 
	d="
M608.488159,458.057251 
	C600.311646,458.193848 591.673279,458.269806 582.935547,458.121704 
	C591.232849,457.930634 599.629578,457.963593 608.488159,458.057251 
z"/>
<path fill="#33CB78" opacity="1.000000" stroke="none" 
	d="
M518.374512,364.254364 
	C520.769104,364.051575 523.527588,364.187012 526.252563,363.944885 
	C528.884521,363.711060 529.196472,365.100983 529.061707,367.552124 
	C529.052795,370.356476 528.990356,372.724609 528.886963,375.534973 
	C528.239563,374.238434 526.987183,372.435791 527.151672,370.773285 
	C527.590393,366.338531 526.183228,364.333008 521.571472,364.930603 
	C520.659302,365.048828 519.674866,364.609619 518.374512,364.254364 
z"/>
<path fill="#33CB78" opacity="1.000000" stroke="none" 
	d="
M528.883911,402.518494 
	C525.848083,399.281281 526.588501,395.395203 528.544067,391.243622 
	C528.868652,394.704132 528.897949,398.382812 528.883911,402.518494 
z"/>
<path fill="#33CB78" opacity="1.000000" stroke="none" 
	d="
M328.405121,711.995483 
	C332.797821,709.999573 336.748596,712.009766 340.790894,714.844788 
	C336.923584,714.117920 332.854401,713.093994 328.405121,711.995483 
z"/>
<path fill="#33CB78" opacity="1.000000" stroke="none" 
	d="
M622.613464,268.924713 
	C619.171631,270.809357 615.358582,272.754761 611.181763,274.745605 
	C614.626160,272.855865 618.434143,270.920685 622.613464,268.924713 
z"/>
<path fill="#38DE7F" opacity="1.000000" stroke="none" 
	d="
M406.024811,794.766357 
	C399.661499,795.043030 393.303040,795.067322 386.485291,795.002686 
	C386.051697,794.496765 386.077423,794.079834 386.168671,793.356506 
	C386.682709,793.289001 387.131226,793.527954 387.815613,793.863647 
	C393.702637,793.963318 399.353790,793.966370 405.467926,793.994141 
	C405.963837,794.183899 405.996765,794.348938 406.024811,794.766357 
z"/>
<path fill="#33CB78" opacity="1.000000" stroke="none" 
	d="
M528.887329,387.530060 
	C526.066406,385.311584 526.543274,382.420807 528.540710,379.235474 
	C528.862061,381.712463 528.895508,384.398285 528.887329,387.530060 
z"/>
<path fill="#33CB78" opacity="1.000000" stroke="none" 
	d="
M359.551117,496.811066 
	C358.093323,499.136017 356.289001,501.435120 354.156036,503.833923 
	C355.619781,501.550812 357.412201,499.167999 359.551117,496.811066 
z"/>
<path fill="#33CB78" opacity="1.000000" stroke="none" 
	d="
M610.770996,279.681885 
	C612.078125,280.466339 613.539368,281.526459 614.930908,282.836792 
	C613.549133,282.043854 612.237061,281.000702 610.770996,279.681885 
z"/>
<path fill="#33CB78" opacity="1.000000" stroke="none" 
	d="
M495.023621,364.427124 
	C498.044281,364.074951 501.058105,364.040771 504.520386,364.062927 
	C501.938538,364.650299 498.908295,365.181335 495.520874,365.860046 
	C495.114777,365.586884 495.065796,365.165985 495.023621,364.427124 
z"/>
<path fill="#33CB78" opacity="1.000000" stroke="none" 
	d="
M362.714050,491.975189 
	C362.041168,493.366608 361.138336,494.931305 359.911865,496.632538 
	C360.553528,495.228851 361.518799,493.688629 362.714050,491.975189 
z"/>
<path fill="#030216" opacity="1.000000" stroke="none" 
	d="
M385.714935,715.386230 
	C385.920715,718.374329 385.956879,721.720093 385.940552,725.519165 
	C385.773804,722.563049 385.659546,719.153442 385.714935,715.386230 
z"/>
<path fill="#030216" opacity="1.000000" stroke="none" 
	d="
M385.717682,782.378967 
	C385.921265,785.042725 385.954742,788.058167 385.936340,791.522827 
	C385.772125,788.891602 385.659851,785.811096 385.717682,782.378967 
z"/>
<path fill="#33CB78" opacity="1.000000" stroke="none" 
	d="
M353.690369,503.973755 
	C353.094452,505.129669 352.263611,506.433411 351.102325,507.834595 
	C351.666382,506.661835 352.560944,505.391724 353.690369,503.973755 
z"/>
<path fill="#38DE7F" opacity="1.000000" stroke="none" 
	d="
M648.321594,465.931030 
	C648.035156,464.375977 648.013062,462.618622 647.998047,460.423645 
	C648.198669,461.900269 648.392273,463.814514 648.321594,465.931030 
z"/>
<path fill="#38DE7F" opacity="1.000000" stroke="none" 
	d="
M448.486755,701.005188 
	C446.474213,700.185669 444.461670,699.366150 442.261414,698.244873 
	C442.073669,697.943176 442.093384,697.906189 442.476135,697.910522 
	C443.588470,697.986633 444.318085,698.058411 445.047699,698.130249 
	C445.047699,698.130249 444.943756,697.955811 445.019104,698.324463 
	C445.738464,698.989624 446.382507,699.286072 447.026520,699.582520 
	C447.097534,699.847778 447.269104,699.998840 447.868500,700.275818 
	C448.292755,700.678955 448.389740,700.842041 448.486755,701.005188 
z"/>
<path fill="#33CB78" opacity="1.000000" stroke="none" 
	d="
M729.813232,704.742126 
	C728.438965,704.183472 726.855408,703.373047 725.154297,702.240051 
	C726.559082,702.775085 728.081482,703.632751 729.813232,704.742126 
z"/>
<path fill="#030216" opacity="1.000000" stroke="none" 
	d="
M385.631073,705.163086 
	C385.924225,706.716919 385.959564,708.421631 385.942261,710.549805 
	C385.717499,709.086853 385.545380,707.200378 385.631073,705.163086 
z"/>
<path fill="#33CB78" opacity="1.000000" stroke="none" 
	d="
M343.927673,716.526489 
	C345.389435,717.000183 346.976837,717.790344 348.741394,718.872192 
	C347.296783,718.390259 345.675018,717.616638 343.927673,716.526489 
z"/>
<path fill="#33CB78" opacity="1.000000" stroke="none" 
	d="
M347.657593,512.007080 
	C347.114594,513.126709 346.304413,514.429321 345.167297,515.834656 
	C345.690338,514.688293 346.540375,513.439148 347.657593,512.007080 
z"/>
<path fill="#33CB78" opacity="1.000000" stroke="none" 
	d="
M373.299622,541.953491 
	C373.855408,540.852234 374.670135,539.560181 375.807922,538.158325 
	C375.273560,539.286621 374.416077,540.524658 373.299622,541.953491 
z"/>
<path fill="#33CB78" opacity="1.000000" stroke="none" 
	d="
M610.195190,274.805969 
	C610.560852,275.895081 610.654175,277.150574 610.649475,278.873718 
	C610.341858,277.885010 610.132324,276.428680 610.195190,274.805969 
z"/>
<path fill="#33CB78" opacity="1.000000" stroke="none" 
	d="
M717.321533,289.938171 
	C717.400085,288.580078 717.758789,287.021057 718.389282,285.254059 
	C718.307922,286.609772 717.954834,288.173523 717.321533,289.938171 
z"/>
<path fill="#33CB78" opacity="1.000000" stroke="none" 
	d="
M627.639404,266.886780 
	C626.534180,267.529297 625.080627,268.231537 623.250977,268.936890 
	C624.346924,268.275482 625.819031,267.610992 627.639404,266.886780 
z"/>
<path fill="#33CB78" opacity="1.000000" stroke="none" 
	d="
M495.083862,426.437134 
	C495.242767,427.817200 495.357483,429.594482 495.239929,431.353149 
	C494.949127,430.895660 494.890533,430.456848 494.831970,430.018005 
	C494.901184,428.956787 494.970398,427.895599 495.083862,426.437134 
z"/>
<path fill="#33CB78" opacity="1.000000" stroke="none" 
	d="
M320.374023,712.621460 
	C321.185211,712.304810 322.327087,711.946594 323.718201,711.754822 
	C322.879883,712.140808 321.792297,712.360352 320.374023,712.621460 
z"/>
<path fill="#33CB78" opacity="1.000000" stroke="none" 
	d="
M349.746246,509.149109 
	C349.473907,509.871185 348.959473,510.786011 348.133942,511.818939 
	C348.383270,511.071991 348.943726,510.206940 349.746246,509.149109 
z"/>
<path fill="#33CB78" opacity="1.000000" stroke="none" 
	d="
M317.971497,730.657104 
	C317.190796,730.413818 316.203766,729.914917 315.061157,729.101685 
	C315.858765,729.325378 316.811981,729.863464 317.971497,730.657104 
z"/>
<path fill="#030216" opacity="1.000000" stroke="none" 
	d="
M494.580200,430.096863 
	C494.890533,430.456848 494.949127,430.895660 495.075439,431.659851 
	C494.498718,431.822357 493.854279,431.659515 493.100861,431.249664 
	C493.437408,430.727020 493.882904,430.451385 494.580200,430.096863 
z"/>
<path fill="#38DE7F" opacity="1.000000" stroke="none" 
	d="
M639.268188,788.885315 
	C638.966675,788.469971 638.903320,787.921387 638.934631,787.176147 
	C639.188293,787.570374 639.347290,788.161194 639.268188,788.885315 
z"/>
<path fill="#33CB78" opacity="1.000000" stroke="none" 
	d="
M733.201782,707.531067 
	C732.648010,707.344299 731.969360,706.865051 731.177612,706.083191 
	C731.735352,706.266541 732.406128,706.752502 733.201782,707.531067 
z"/>
<path fill="#38DE7F" opacity="1.000000" stroke="none" 
	d="
M646.348389,468.077148 
	C646.539490,467.504333 647.040039,466.872375 647.838928,466.136475 
	C647.644043,466.694305 647.150940,467.356140 646.348389,468.077148 
z"/>
<path fill="#38DE7F" opacity="1.000000" stroke="none" 
	d="
M445.625397,474.163940 
	C445.517273,474.722839 445.084747,475.249634 444.405212,475.866913 
	C444.539154,475.348846 444.920044,474.740356 445.625397,474.163940 
z"/>
<path fill="#33CB78" opacity="1.000000" stroke="none" 
	d="
M495.127075,398.349304 
	C495.296326,398.616821 495.424469,399.208282 495.359192,399.887054 
	C495.139191,399.540649 495.112579,399.106934 495.127075,398.349304 
z"/>
<path fill="#33CB78" opacity="1.000000" stroke="none" 
	d="
M740.206787,714.883911 
	C739.682678,714.589905 739.018738,713.978149 738.244446,713.039978 
	C738.778442,713.331055 739.422729,713.948608 740.206787,714.883911 
z"/>
<path fill="#38DE7F" opacity="1.000000" stroke="none" 
	d="
M535.552612,695.108154 
	C534.820435,695.244446 533.703125,695.343872 532.330505,695.293579 
	C533.105957,695.119690 534.136719,695.095520 535.552612,695.108154 
z"/>
<path fill="#33CB78" opacity="1.000000" stroke="none" 
	d="
M341.124603,715.299072 
	C341.729828,715.282776 342.588135,715.510864 343.716980,715.938843 
	C343.117554,715.940430 342.247620,715.742004 341.124603,715.299072 
z"/>
<path fill="#030216" opacity="1.000000" stroke="none" 
	d="
M494.708252,414.272400 
	C494.865692,414.772980 494.894135,415.501129 494.879395,416.591736 
	C494.750519,416.136108 494.664856,415.318085 494.708252,414.272400 
z"/>
<path fill="#030216" opacity="1.000000" stroke="none" 
	d="
M444.739838,697.986328 
	C444.318085,698.058411 443.588470,697.986633 442.487549,697.892944 
	C442.116241,697.871094 441.966919,697.485413 441.872589,697.301025 
	C442.662842,697.358643 443.547424,697.600586 444.739838,697.986328 
z"/>
<path fill="#2FB56E" opacity="1.000000" stroke="none" 
	d="
M526.335999,438.792847 
	C526.755005,438.496613 527.494141,438.267731 528.524170,438.004456 
	C528.095459,438.266785 527.375793,438.563507 526.335999,438.792847 
z"/>
<path fill="#030216" opacity="1.000000" stroke="none" 
	d="
M494.709045,366.213074 
	C494.864899,366.723267 494.892883,367.467590 494.878235,368.582581 
	C494.750763,368.117889 494.665985,367.282532 494.709045,366.213074 
z"/>
<path fill="#38DE7F" opacity="1.000000" stroke="none" 
	d="
M296.680542,704.960693 
	C296.463501,705.501526 295.936066,706.097351 295.150574,706.849976 
	C295.385071,706.343140 295.877594,705.679382 296.680542,704.960693 
z"/>
<path fill="#38DE7F" opacity="1.000000" stroke="none" 
	d="
M359.225433,751.679932 
	C358.823059,751.490417 358.513306,750.973206 358.113129,750.167969 
	C358.454498,750.370728 358.886261,750.861511 359.225433,751.679932 
z"/>
<path fill="#38DE7F" opacity="1.000000" stroke="none" 
	d="
M528.630188,695.111938 
	C528.437622,695.215454 527.934753,695.286255 527.253967,695.255493 
	C527.490662,695.129089 527.905273,695.104126 528.630188,695.111938 
z"/>
<path fill="#2FB56E" opacity="1.000000" stroke="none" 
	d="
M546.785767,387.511810 
	C546.574280,387.752075 546.133179,387.847046 545.351868,387.948303 
	C545.011658,387.954651 544.909912,387.494904 544.937378,387.261108 
	C545.495300,387.140381 546.025696,387.253448 546.785767,387.511810 
z"/>
<path fill="#030216" opacity="1.000000" stroke="none" 
	d="
M446.756714,699.368408 
	C446.382507,699.286072 445.738464,698.989624 444.931793,698.376343 
	C445.341736,698.424438 445.914337,698.789368 446.756714,699.368408 
z"/>
<path fill="#030216" opacity="1.000000" stroke="none" 
	d="
M448.343323,701.124512 
	C448.389740,700.842041 448.292755,700.678955 448.049194,700.271790 
	C448.429047,700.313599 448.955444,700.599487 449.723572,701.064331 
	C449.801758,701.197327 449.638214,701.151428 448.968842,700.985718 
	C448.283661,700.907898 448.104279,700.949768 447.924866,700.991699 
	C447.924866,700.991699 448.199921,701.243774 448.343323,701.124512 
z"/>
<path fill="#38DE7F" opacity="1.000000" stroke="none" 
	d="
M504.122375,501.261322 
	C504.474731,501.250488 505.015076,501.487366 505.792908,501.901031 
	C505.457062,501.888245 504.883728,501.698639 504.122375,501.261322 
z"/>
<path fill="#38DE7F" opacity="1.000000" stroke="none" 
	d="
M461.136719,458.174347 
	C461.300415,458.207855 461.580719,458.453247 461.931885,458.841858 
	C461.701263,458.850220 461.451416,458.650604 461.136719,458.174347 
z"/>
<path fill="#38DE7F" opacity="1.000000" stroke="none" 
	d="
M473.881836,471.293640 
	C474.011261,471.280579 474.298401,471.511597 474.812653,471.901154 
	C474.706360,471.885742 474.372955,471.711761 473.881836,471.293640 
z"/>
<path fill="#38DE7F" opacity="1.000000" stroke="none" 
	d="
M475.001709,472.250793 
	C475.173431,472.218933 475.415588,472.463928 475.840515,472.891602 
	C475.706268,472.892090 475.389221,472.709900 475.001709,472.250793 
z"/>
<path fill="#38DE7F" opacity="1.000000" stroke="none" 
	d="
M475.986633,473.261475 
	C476.171173,473.219940 476.418213,473.460022 476.843109,473.887695 
	C476.697021,473.897888 476.373108,473.720490 475.986633,473.261475 
z"/>
<path fill="#38DE7F" opacity="1.000000" stroke="none" 
	d="
M476.999390,474.256287 
	C477.151337,474.276825 477.367676,474.590851 477.771606,475.121094 
	C477.660706,475.074799 477.362244,474.812286 476.999390,474.256287 
z"/>
<path fill="#38DE7F" opacity="1.000000" stroke="none" 
	d="
M645.065063,469.732117 
	C644.860840,469.695831 644.888428,469.444244 645.036499,469.084229 
	C645.134827,469.144501 645.181458,469.324860 645.065063,469.732117 
z"/>
<path fill="#38DE7F" opacity="1.000000" stroke="none" 
	d="
M645.316895,469.092316 
	C645.237854,468.848877 645.470764,468.593140 645.899536,468.166565 
	C645.939819,468.357178 645.784302,468.718597 645.316895,469.092316 
z"/>
<path fill="#38DE7F" opacity="1.000000" stroke="none" 
	d="
M468.880310,466.303528 
	C468.985168,466.343048 469.245117,466.639435 469.734283,467.123230 
	C469.654144,467.060516 469.344788,466.810425 468.880310,466.303528 
z"/>
<path fill="#33CB78" opacity="1.000000" stroke="none" 
	d="
M736.143677,710.631470 
	C735.870667,710.731384 735.617188,710.502380 735.202148,710.074219 
	C735.414795,710.017517 735.789062,710.160034 736.143677,710.631470 
z"/>
<path fill="#33CB78" opacity="1.000000" stroke="none" 
	d="
M737.122192,711.644165 
	C736.862610,711.737915 736.611511,711.507080 736.200439,711.076233 
	C736.403931,711.023987 736.767273,711.171753 737.122192,711.644165 
z"/>
<path fill="#38DE7F" opacity="1.000000" stroke="none" 
	d="
M299.686096,701.875000 
	C299.725708,702.026184 299.499908,702.314758 299.095398,702.812378 
	C299.084686,702.685059 299.252686,702.348694 299.686096,701.875000 
z"/>
<path fill="#33CB78" opacity="1.000000" stroke="none" 
	d="
M735.141235,709.632629 
	C734.869446,709.731689 734.614258,709.505249 734.195801,709.081299 
	C734.407654,709.024902 734.782715,709.165955 735.141235,709.632629 
z"/>
<path fill="#33CB78" opacity="1.000000" stroke="none" 
	d="
M734.120361,708.647583 
	C733.860535,708.739624 733.605835,708.513977 733.186584,708.092834 
	C733.389832,708.041565 733.757629,708.185730 734.120361,708.647583 
z"/>
<path fill="#33CB78" opacity="1.000000" stroke="none" 
	d="
M456.064087,708.718750 
	C455.873077,708.778992 455.619843,708.538635 455.199463,708.095886 
	C455.355469,708.068420 455.678650,708.243286 456.064087,708.718750 
z"/>
<path fill="#33CB78" opacity="1.000000" stroke="none" 
	d="
M348.934418,719.542603 
	C349.071747,719.243652 349.322510,719.198181 349.954468,719.124390 
	C349.906433,719.329407 349.477173,719.562744 348.934418,719.542603 
z"/>
<path fill="#33CB78" opacity="1.000000" stroke="none" 
	d="
M455.374756,707.613647 
	C455.190521,707.700500 455.049377,707.496582 454.998169,707.122192 
	C455.006592,706.997314 455.336395,707.368408 455.374756,707.613647 
z"/>
<path fill="#38DE7F" opacity="1.000000" stroke="none" 
	d="
M297.700897,703.932129 
	C297.768829,704.158142 297.532227,704.410217 297.102600,704.835815 
	C297.071808,704.658875 297.234070,704.308594 297.700897,703.932129 
z"/>
<path fill="#38DE7F" opacity="1.000000" stroke="none" 
	d="
M298.706055,702.946045 
	C298.770966,703.160645 298.533081,703.411560 298.100677,703.834229 
	C298.071869,703.664734 298.237579,703.323547 298.706055,702.946045 
z"/>
<path fill="#38DE7F" opacity="1.000000" stroke="none" 
	d="
M358.017273,749.734375 
	C357.827667,749.779968 357.582336,749.537720 357.160889,749.105957 
	C357.310333,749.093201 357.635956,749.269836 358.017273,749.734375 
z"/>
<path fill="#33CB78" opacity="1.000000" stroke="none" 
	d="
M738.090454,712.666992 
	C737.848083,712.750854 737.598572,712.519531 737.191223,712.087341 
	C737.383362,712.041626 737.733337,712.196716 738.090454,712.666992 
z"/>
<path fill="#38DE7F" opacity="1.000000" stroke="none" 
	d="
M356.029114,747.729187 
	C355.852661,747.724670 355.629211,747.421021 355.224121,746.900269 
	C355.355682,746.932129 355.668915,747.181030 356.029114,747.729187 
z"/>
<path fill="#38DE7F" opacity="1.000000" stroke="none" 
	d="
M357.036346,748.722229 
	C356.835144,748.775085 356.586212,748.535706 356.161255,748.106079 
	C356.319672,748.087280 356.654144,748.258606 357.036346,748.722229 
z"/>
<path fill="#38DE7F" opacity="1.000000" stroke="none" 
	d="
M556.751099,424.652588 
	C556.535645,412.926544 556.569580,400.942627 556.599731,388.503174 
	C556.868042,388.465698 557.380554,388.885742 557.377197,389.301666 
	C557.283508,400.999603 557.137756,412.697144 556.751099,424.652588 
z"/>
<path fill="#2EB36D" opacity="1.000000" stroke="none" 
	d="
M566.368652,309.204102 
	C566.603088,309.441376 566.674988,309.884399 566.739014,310.666565 
	C566.731262,311.005768 566.275574,310.971130 566.046387,310.947205 
	C565.946777,310.418793 566.076416,309.914307 566.368652,309.204102 
z"/>
<path fill="#2EB36D" opacity="1.000000" stroke="none" 
	d="
M555.101196,311.454834 
	C555.138245,311.224518 555.305725,311.167267 555.737061,311.080811 
	C555.997070,311.222473 555.993286,311.393311 555.978760,311.821960 
	C555.693542,311.976410 555.448059,311.825806 555.101196,311.454834 
z"/>
<path fill="#071724" opacity="1.000000" stroke="none" 
	d="
M697.946228,713.189636 
	C713.578552,713.842896 725.429626,723.221741 728.578125,737.431396 
	C731.960632,752.697815 725.874939,766.492493 711.942932,773.595337 
	C704.755005,774.348511 698.217407,775.168091 691.680542,775.992920 
	C688.067444,776.448792 686.713135,775.104370 686.859924,771.260559 
	C687.163269,763.314758 687.064392,755.346985 686.879517,747.394104 
	C686.837708,745.592285 685.769958,743.814270 685.174377,742.025330 
	C685.132629,740.942627 685.090942,739.859924 685.404297,738.154419 
	C687.398621,733.603577 688.125671,729.721802 685.174866,726.026917 
	C685.132690,722.639587 685.090515,719.252319 685.480225,715.265381 
	C689.923462,714.173767 693.934875,713.681702 697.946228,713.189636 
z"/>
<path fill="#030216" opacity="1.000000" stroke="none" 
	d="
M685.132080,742.490723 
	C685.769958,743.814270 686.837708,745.592285 686.879517,747.394104 
	C687.064392,755.346985 687.163269,763.314758 686.859924,771.260559 
	C686.713135,775.104370 688.067444,776.448792 691.680542,775.992920 
	C698.217407,775.168091 704.755005,774.348511 711.605713,773.652527 
	C704.252686,776.937561 694.099182,778.073730 685.089783,776.637390 
	C685.089783,765.471924 685.089783,754.214050 685.132080,742.490723 
z"/>
<path fill="#030216" opacity="1.000000" stroke="none" 
	d="
M685.132568,726.483765 
	C688.125671,729.721802 687.398621,733.603577 685.467224,737.752014 
	C685.146790,734.295105 685.118530,730.617859 685.132568,726.483765 
z"/>
<path fill="#030216" opacity="1.000000" stroke="none" 
	d="
M697.491211,713.121704 
	C693.934875,713.681702 689.923462,714.173767 685.539917,714.806580 
	C685.977905,714.251648 686.756226,713.007385 687.604004,712.958130 
	C690.735657,712.776245 693.890259,712.989319 697.491211,713.121704 
z"/>
<path fill="#38DE7F" opacity="1.000000" stroke="none" 
	d="
M502.871643,714.161316 
	C502.865265,714.046326 502.948395,714.500488 502.913696,714.728760 
	C502.864807,714.729004 502.864471,714.502136 502.871643,714.161316 
z"/>
<path fill="#071724" opacity="1.000000" stroke="none" 
	d="
M503.238281,735.218811 
	C503.432007,735.112549 503.625580,735.251770 503.921753,735.547852 
	C504.041168,735.681458 503.597839,735.725159 503.597839,735.725159 
	C503.597839,735.725159 503.254852,735.440918 503.238281,735.218811 
z"/>
<path fill="#071724" opacity="1.000000" stroke="none" 
	d="
M406.018951,742.952087 
	C406.003815,742.785706 405.988708,742.619324 405.962708,741.975952 
	C405.951752,741.498840 405.893066,741.029663 405.893066,741.029663 
	C405.935028,732.986816 405.977020,724.943909 405.997620,716.112915 
	C405.942474,714.895691 405.908722,714.466675 405.875000,714.037720 
	C406.746277,713.470520 407.611969,712.423340 408.489685,712.413147 
	C414.792908,712.340149 421.125153,712.139343 427.396881,712.632324 
	C435.691254,713.284302 439.481567,716.688049 440.727570,723.555786 
	C442.437347,732.979736 440.088440,738.401855 432.064758,742.481812 
	C423.010132,742.785217 414.514526,742.868652 406.018951,742.952087 
z"/>
<path fill="#33CB78" opacity="1.000000" stroke="none" 
	d="
M406.236176,743.266724 
	C414.514526,742.868652 423.010132,742.785217 432.005127,742.802368 
	C423.897919,746.089233 415.204865,745.956848 406.236176,743.266724 
z"/>
<path fill="#38DE7F" opacity="1.000000" stroke="none" 
	d="
M432.600464,759.702332 
	C424.274139,760.172974 415.587158,760.449219 406.451782,760.871338 
	C407.102600,760.372314 408.199860,759.175232 409.301239,759.171387 
	C416.946930,759.144836 424.593506,759.366150 432.600464,759.702332 
z"/>
<path fill="#38DE7F" opacity="1.000000" stroke="none" 
	d="
M405.729187,781.342285 
	C405.930145,782.732605 405.961395,784.425659 405.948669,786.539917 
	C405.789642,785.189087 405.674561,783.417053 405.729187,781.342285 
z"/>
<path fill="#33CB78" opacity="1.000000" stroke="none" 
	d="
M405.765930,714.219788 
	C405.908722,714.466675 405.942474,714.895691 405.935150,715.645752 
	C405.815002,715.445190 405.735931,714.923584 405.765930,714.219788 
z"/>
<path fill="#38DE7F" opacity="1.000000" stroke="none" 
	d="
M405.907471,772.152954 
	C405.907990,772.035400 405.979858,772.499939 405.943420,772.732117 
	C405.883514,772.731201 405.883514,772.499939 405.907471,772.152954 
z"/>
<path fill="#38DE7F" opacity="1.000000" stroke="none" 
	d="
M448.057251,700.965088 
	C448.104279,700.949768 448.283661,700.907898 448.714111,700.981445 
	C448.704010,701.055542 448.445496,701.002747 448.057251,700.965088 
z"/>
<path fill="#33CB78" opacity="1.000000" stroke="none" 
	d="
M405.850250,741.143799 
	C405.893066,741.029663 405.951752,741.498840 405.908630,741.731262 
	C405.760468,741.731384 405.741119,741.496155 405.850250,741.143799 
z"/>
<path fill="#2EB36D" opacity="1.000000" stroke="none" 
	d="
M577.542725,385.092682 
	C577.695618,385.148682 577.747803,385.321625 577.745422,385.759888 
	C577.422729,385.808197 577.339783,385.536346 577.542725,385.092682 
z"/>
<path fill="#1C5C49" opacity="1.000000" stroke="none" 
	d="
M544.715942,335.733337 
	C544.440552,333.946777 544.295471,331.754028 544.276733,329.149597 
	C544.550720,330.934326 544.698486,333.130707 544.715942,335.733337 
z"/>
<path fill="#1C5C49" opacity="1.000000" stroke="none" 
	d="
M544.676697,358.826294 
	C544.503845,358.809082 544.413391,358.468567 544.458191,357.992371 
	C544.648682,358.072113 544.703857,358.287567 544.676697,358.826294 
z"/>
<path fill="#2EB36D" opacity="1.000000" stroke="none" 
	d="
M544.425781,320.905609 
	C544.280029,320.852509 544.222473,320.678619 544.229614,320.237732 
	C544.526978,320.198425 544.600220,320.469818 544.425781,320.905609 
z"/>
</svg>